<svg class="illustration" width="1155" height="700" viewBox="0 0 1155 700" fill="none" xmlns="http://www.w3.org/2000/svg">
<rect x="259" y="150" width="637.87" height="400" rx="5.43289" fill="#5fcff8"/>
<path d="M259 150L284.668 206.251L405.907 481.496L896.87 550H259V150Z" fill="black" fill-opacity="0.06"/>
<rect x="274.385" y="167.751" width="602.367" height="26.0355" rx="10.8658" fill="#F8F8F8"/>
<rect x="274.385" y="212.721" width="138.462" height="311.243" rx="3.515" fill="white"/>
<rect x="430.599" y="212.721" width="446.154" height="311.618" rx="3.51924" fill="white"/>
<rect x="430.598" y="212.721" width="446.154" height="311.618" rx="3.51924" fill="white"/>
<circle cx="287.403" cy="180.768" r="4.73373" fill="#C4C4C4"/>
<circle cx="302.787" cy="180.768" r="4.73373" fill="#C4C4C4"/>
<circle cx="318.171" cy="180.768" r="4.73373" fill="#C4C4C4"/>
<rect x="454.266" y="243.492" width="275.74" height="150.296" rx="6.6402" fill="black" fill-opacity="0.04"/>
<path d="M469.804 350.973L490.556 331.313L515.132 336.774L531.515 316.567L570.29 297.999L589.95 322.029L637.463 301.822L665.861 331.313L696.99 316.567L707.913 297.999" stroke="#C8C8C8" stroke-width="1.11428"/>
<rect x="454.266" y="417.457" width="152.663" height="16.568" rx="6.6402" fill="black" fill-opacity="0.04"/>
<rect x="454.266" y="444.676" width="275.74" height="9.46746" rx="4.73373" fill="black" fill-opacity="0.04"/>
<rect x="454.266" y="464.792" width="275.74" height="9.46746" rx="4.73373" fill="black" fill-opacity="0.04"/>
<rect x="454.266" y="484.911" width="275.74" height="9.46746" rx="4.73373" fill="black" fill-opacity="0.04"/>
<rect x="286.219" y="243.492" width="114.793" height="39.0532" rx="19.5266" fill="#C4C4C4" fill-opacity="0.25"/>
<circle cx="490.555" cy="332.405" r="4.36897" fill="#C6C6C6"/>
<circle cx="515.676" cy="336.774" r="4.36897" fill="#C6C6C6"/>
<circle cx="530.968" cy="317.114" r="4.36897" fill="#C6C6C6"/>
<circle cx="569.197" cy="298.545" r="4.36897" fill="#C6C6C6"/>
<circle cx="589.948" cy="321.482" r="4.36897" fill="#C6C6C6"/>
<circle cx="636.915" cy="302.914" r="4.36897" fill="#C6C6C6"/>
<circle cx="665.313" cy="330.22" r="4.36897" fill="#C6C6C6"/>
<circle cx="696.988" cy="316.021" r="4.36897" fill="#C6C6C6"/>
<path fill-rule="evenodd" clip-rule="evenodd" d="M761.945 469.926C835.605 450.188 879.319 374.474 859.581 300.814C839.844 227.153 764.13 183.44 690.47 203.177C616.809 222.914 573.095 298.628 592.833 372.289C612.57 445.949 688.284 489.663 761.945 469.926ZM743.535 401.221C707.819 410.791 671.107 389.596 661.537 353.88C651.967 318.163 673.163 281.452 708.879 271.881C744.595 262.311 781.307 283.507 790.877 319.223C800.447 354.939 779.251 391.651 743.535 401.221ZM352.449 344.686C352.982 343.481 353.277 342.149 353.277 340.747C353.277 335.362 348.912 330.996 343.527 330.996C338.142 330.996 333.777 335.362 333.777 340.747C333.777 343.33 334.781 345.679 336.421 347.424L305.813 382.047L305.812 382.048L283.481 407.209L284.681 408.274L307.013 383.112L307.014 383.111L337.612 348.499C339.253 349.752 341.303 350.497 343.527 350.497C346.925 350.497 349.916 348.759 351.662 346.124L408.894 395.18C408.324 396.419 408.006 397.797 408.006 399.249C408.006 404.634 412.372 409 417.757 409C423.142 409 427.507 404.634 427.507 399.249C427.507 396.457 426.334 393.939 424.452 392.161L452.844 348.584C454.465 349.786 456.472 350.497 458.646 350.497C462.882 350.497 466.487 347.795 467.833 344.021L526.909 367.984C526.903 368.13 526.9 368.277 526.9 368.425C526.9 373.81 531.265 378.175 536.65 378.175C542.035 378.175 546.401 373.81 546.401 368.425C546.401 365.639 545.233 363.127 543.359 361.35L560.917 333.627L559.562 332.769L542.101 360.339C540.545 359.288 538.669 358.675 536.65 358.675C531.981 358.675 528.078 361.956 527.123 366.339L468.247 342.458C468.345 341.902 468.396 341.33 468.396 340.747C468.396 335.362 464.031 330.996 458.646 330.996C453.261 330.996 448.895 335.362 448.895 340.747C448.895 343.375 449.935 345.76 451.626 347.514L423.194 391.154C421.64 390.109 419.77 389.499 417.757 389.499C414.409 389.499 411.455 391.187 409.699 393.758L352.449 344.686ZM456.445 382.579H486.011V520.973H456.445V382.579ZM418.072 432.275H447.638V520.973H418.072V432.275ZM409.264 414.661H379.698V520.973H409.264V414.661ZM341.325 397.047H370.891V520.973H341.325V397.047Z" fill="#d8357b"/>
<path d="M863.623 331.748C862.766 310.659 857.086 290.046 847.018 271.495C836.951 252.943 822.765 236.947 805.549 224.735C788.334 212.522 768.548 204.419 747.712 201.048C726.876 197.677 705.545 199.127 685.357 205.287L706.117 273.319C715.906 270.332 726.249 269.628 736.352 271.263C746.454 272.898 756.048 276.827 764.395 282.748C772.742 288.67 779.621 296.426 784.502 305.421C789.384 314.416 792.138 324.41 792.554 334.636L863.623 331.748Z" fill="white" fill-opacity="0.33"/>
<path d="M685.37 205.283C658.621 213.443 634.981 229.532 617.576 251.423C600.172 273.313 589.825 299.972 587.905 327.871C585.984 355.771 592.58 383.596 606.82 407.665C621.06 431.733 642.273 450.911 667.652 462.659L697.532 398.112C685.227 392.415 674.941 383.117 668.036 371.446C661.132 359.776 657.933 346.284 658.865 332.756C659.796 319.228 664.813 306.302 673.252 295.688C681.691 285.074 693.154 277.273 706.123 273.317L685.37 205.283Z" fill="white" fill-opacity="0.58"/>
<path d="M667.693 462.678C697.859 476.63 732.044 479.234 763.975 470.011L744.237 401.676C728.755 406.148 712.179 404.886 697.552 398.121L667.693 462.678Z" fill="white" fill-opacity="0.44"/>
<path d="M283.532 408.545L305.864 383.382L344.237 339.977L416.894 402.254L457.468 339.977L535.787 371.745L559.691 334.001" stroke="white" stroke-opacity="0.19" stroke-width="1.60439"/>
<circle cx="344.867" cy="354.131" r="9.75047" fill="black" fill-opacity="0.01"/>
<circle cx="419.096" cy="412.634" r="9.75047" fill="black" fill-opacity="0.01"/>
<circle cx="459.986" cy="354.131" r="9.75047" fill="black" fill-opacity="0.01"/>
<circle cx="537.99" cy="381.809" r="9.75047" fill="black" fill-opacity="0.01"/>
</svg>