<svg class="illustration" width="1155" height="700" viewBox="0 0 1155 700" fill="none" xmlns="http://www.w3.org/2000/svg">
<path d="M430.875 334.75C427.145 342.833 404.451 358.843 393.57 365.838C389.218 374.542 395.384 377.755 399.011 378.273C427.767 365.06 433.207 339.413 437.093 338.636C440.979 337.859 444.087 331.641 444.087 327.756C444.087 323.87 447.196 321.538 448.751 315.321C450.305 309.103 444.087 309.103 444.087 311.435C444.087 313.766 435.538 324.647 430.875 334.75Z" fill="#8A6564"/>
<path d="M318.183 424.904C316.94 421.795 322.328 413.764 325.178 410.137C332.639 410.137 339.167 419.982 341.499 424.904C341.24 428.013 339.944 434.23 336.836 434.23C332.95 434.23 319.738 428.79 318.183 424.904Z" fill="#8A6564"/>
<path d="M365.592 364.283C365.592 367.392 361.965 372.832 360.151 375.164C359.374 376.205 349.271 375.164 349.271 372.832C349.271 370.501 357.043 360.397 354.711 358.066C352.379 355.734 350.825 353.403 351.602 351.071C352.224 349.206 353.934 349.258 354.711 349.517C354.711 343.299 356.265 342.263 357.043 342.522C362.483 344.076 365.592 360.397 365.592 364.283Z" fill="#8A6564"/>
<path fill-rule="evenodd" clip-rule="evenodd" d="M451 121.824L320 43V118.48L451 199.136V428.64L821.352 656L837 637.707V291.44L646 175.389V159.132L608 138V152.3L607.517 152.006L577.536 97L570 101.789L595.224 144.537L469.257 68L451 71.92V121.824ZM350.048 372.832C342.276 376.459 326.732 386.977 326.732 400.034L319.738 410.914L332.443 417.132C334.384 422.24 335.08 429.496 330.618 445.111C341.758 449.256 365.747 457.961 372.586 450.5C381.135 441.174 388.13 407.806 388.13 396.148L400.565 383.713L395.902 361.175C390.98 362.988 379.426 367.858 372.586 372.832C368.091 376.102 364.297 374.644 360.55 373.204C357.171 371.905 353.83 370.621 350.048 372.832Z" fill="#3434ff"/>
<path d="M451 428.64L821.351 656L837 637.707V291.44L469.257 68L451 71.92V428.64Z" fill="white" fill-opacity="0.1"/>
<path d="M821.351 656V296.667L451 71.92V428.64L821.351 656Z" fill="black" fill-opacity="0.2"/>
<path d="M615.42 426.658C613.196 416.415 612 405.897 612 395.361C612 382.677 612.545 371.259 613.797 361.084L697.009 413.245L615.42 426.658Z" fill="#6B81AC" fill-opacity="0.5"/>
<path d="M625.084 456.464L697.009 413.245L615.42 426.658C617.657 436.959 620.935 446.982 625.084 456.464Z" fill="#B6C7E5" fill-opacity="0.5"/>
<path d="M680.604 297C686.118 297 691.604 297.763 697.009 299.205V413.245L613.797 361.084C619.125 317.78 637.251 297 680.604 297Z" fill="#B7CFFD" fill-opacity="0.5"/>
<path d="M785 435.6C785 502.27 766.952 528 713.414 528C676.844 528 642.917 497.222 625.084 456.465L697.009 413.245V299.205C744.079 311.762 785 375.797 785 435.6Z" fill="white" fill-opacity="0.5"/>
<path d="M561.208 456.2L570.357 460.122V376.469V233.998L561.208 230.077V372.548V456.2Z" fill="#F0EFEC" fill-opacity="0.5"/>
<path d="M537.681 435.287L546.83 439.208V397.382V312.422L537.681 308.501V393.461V435.287Z" fill="#F0EFEC" fill-opacity="0.5"/>
<path d="M490.626 393.461L499.776 397.382V313.729V241.84L490.626 237.919V309.808V393.461Z" fill="#F0EFEC" fill-opacity="0.5"/>
<path d="M514.153 414.374L523.303 418.295V309.808V233.998L514.153 230.077V305.887V414.374Z" fill="#F0EFEC" fill-opacity="0.5"/>
<path d="M561.208 456.2L570.357 460.122V376.469L561.208 372.548V456.2Z" fill="#B7CFFD"/>
<path d="M537.681 435.287L546.83 439.208V397.382L537.681 393.461V435.287Z" fill="#B7CFFD"/>
<path d="M490.626 393.461L499.776 397.382V313.729L490.626 309.808V393.461Z" fill="#B7CFFD"/>
<path d="M514.153 414.374L523.303 418.295V309.808L514.153 305.887V414.374Z" fill="#B7CFFD"/>
<path d="M506 233V154.918L320 43V118.48L506 233Z" fill="#B7CFFD"/>
<path d="M450 157V147.892L331 74.0001V82.4944L450 157Z" fill="white"/>
<path d="M450 177V170.118L330 96.0001V102.26L450 177Z" fill="white"/>
<ellipse rx="19" ry="20.5" transform="matrix(-1 0 0 1 474 179.5)" fill="#FFCB56"/>
<path d="M646 208V159.132L608 138V185.547L646 208Z" fill="white" stroke="#6B81AC" stroke-width="3"/>
<path d="M620.87 188L635 176.505L631 168L620.87 176.505L577.536 97L570 101.789L620.87 188Z" fill="#FFCB56"/>
<path d="M345.385 370.501C345.385 372.988 349.012 371.537 350.825 370.501C352.639 368.428 356.421 363.351 357.043 359.62C357.82 354.957 353.934 355.734 355.488 353.403C357.043 351.071 361.777 347.549 361 339C360.223 330.451 357.043 332.842 354.711 332.842C352.379 332.842 354.711 336.728 349.271 336.728C343.83 336.728 343.5 338.614 343.5 342.5C343.5 346.386 341.609 341.391 338.5 344.5C335.391 347.609 330.885 349.761 335 353.403C338.5 356.5 338 357.5 341.499 362.729C344.128 366.658 345.385 367.392 345.385 370.501Z" fill="#4B5361"/>
<path d="M382.69 616.755C379.581 613.024 381.913 605.874 383.467 602.765C388.907 608.983 388.907 602.765 394.348 602.765C399.788 602.765 411.446 607.429 411.446 609.76C411.446 612.092 386.576 621.418 382.69 616.755Z" fill="#4B5361"/>
<path d="M339.167 602.766C335.437 599.657 337.613 594.216 339.167 591.885C343.83 598.102 343.83 594.216 351.602 590.331C357.82 587.222 360.41 589.035 360.928 590.331C360.151 595.771 343.83 606.651 339.167 602.766Z" fill="#4B5361"/>
<path fill-rule="evenodd" clip-rule="evenodd" d="M330.618 445.111C328.546 450.033 325.178 461.898 328.287 469.981C329.209 472.378 330.918 476.219 332.98 480.85L332.98 480.85C339.605 495.737 349.864 518.785 349.271 528.27C348.835 535.236 345.229 551.961 342.141 566.28L342.141 566.28C339.717 577.519 337.613 587.275 337.613 589.667C340.463 591.481 347.716 594.33 353.934 591.222C359.374 575.937 370.255 543.502 370.255 536.041C370.255 535.179 370.261 534.23 370.269 533.21L370.269 533.209C370.339 523.2 370.457 506.351 364.814 497.182C370.255 505.99 382.845 525.316 389.684 532.155C386.317 551.844 379.892 592.776 381.135 598.994C384.503 601.066 392.638 604.745 398.233 602.879C403.933 578.269 413.132 529.336 412.223 525.938C410.5 519.5 381.913 455.991 371.809 449.774C358.461 447.183 331.536 442.624 330.618 445.111ZM714.557 608.993C699.591 593.024 671.711 562.069 671 556.379C680.038 557.885 701.416 570.539 715.317 609.026C715.374 609.028 715.432 609.03 715.49 609.033C714.886 606.313 714.12 603.104 713.211 599.584C703.643 582.326 692.011 559.608 692.011 552.725C694.049 553.992 696.42 555.739 698.911 557.933C696.714 553.359 694.399 549.355 692.011 546.33C698.406 548.766 712.109 556.014 715.763 565.514C717.458 569.923 717.908 577.519 717.751 585.489C720.211 592.531 721.476 600.48 720.672 609.201C722.672 609.248 724.605 609.268 726.355 609.251C726.121 606.707 726.163 604.309 726.442 602.055C728.95 581.831 750.581 573.305 763.266 576.477C774.959 579.4 796.762 580.131 806.202 580.131C804.07 584.394 792.499 593.103 763.266 593.833C738.304 594.458 729.328 603.119 727.239 609.239C730.69 609.177 733.288 608.947 734.033 608.45C736.774 606.623 735.86 613.404 734.033 613.931C733.723 615.752 733.267 618.302 732.77 621.076C731.612 627.548 730.236 635.233 730 637.683C729.985 637.842 729.971 637.998 729.957 638.15C729.671 641.345 729.522 643 719.5 643C709 643 708.455 641.337 708.455 637.683C708.455 634.76 706.628 620.631 705.714 613.931C704.905 613.123 703.667 611.168 704.408 609.208C695.421 603.677 683.895 594.718 681.049 585.612C687.872 589.81 701.525 599.527 708.442 608.682C710.333 608.792 712.418 608.901 714.557 608.993ZM726.442 602.055C720.446 587.439 711.561 555.283 723.985 543.59C724.788 542.834 725.608 542.131 726.442 541.48C723.796 529.698 724.167 504.308 746.823 497C741.037 503.09 730.014 517.098 732.206 524.406C734.947 518.925 742.438 508.876 750.477 512.53C745.605 514.976 735.86 521.506 735.86 528.06C739.819 524.101 750.842 517.646 763.266 523.492C753.826 524.69 735.13 528.92 735.86 536.252C748.851 531.49 761.876 535.328 763.266 538.109C752.42 537.804 729.87 539.936 726.442 550.898C737.194 545.721 762.17 538.109 776.055 549.071C758.698 549.375 723.985 553.638 723.985 568.255C741.037 561.251 781.354 550.167 806.202 561.86C779.521 560.642 726.216 566.976 726.442 602.055ZM718.613 609.145C717.905 607.916 717.16 606.614 716.388 605.252C716.235 606.618 716.08 607.893 715.928 609.05C716.822 609.085 717.72 609.117 718.613 609.145Z" fill="#fd3d72"/>
<g opacity="0.5">
<path d="M711.195 613.017C702.669 608.754 684.703 597.305 681.049 585.612C688.966 590.484 706.079 602.786 711.195 613.017Z" fill="#FFCB56"/>
<path d="M715.763 610.277C701.146 594.747 671.731 562.226 671 556.379C680.135 557.902 701.877 570.813 715.763 610.277C712.413 594.747 702.973 560.216 692.011 546.33C698.406 548.766 712.109 556.014 715.763 565.514C719.417 575.015 717.285 599.315 715.763 610.277Z" fill="#FFCB56"/>
</g>
<g opacity="0.6">
<path d="M720.33 612.104C710.891 595.965 692.011 561.495 692.011 552.725C703.278 559.729 724.715 581.41 720.33 612.104Z" fill="#FADB96"/>
<path d="M763.266 593.833C734.033 594.564 726.725 606.318 726.725 612.104C726.122 608.483 726.06 605.134 726.442 602.055C720.446 587.439 711.561 555.283 723.985 543.59C724.788 542.834 725.608 542.131 726.442 541.48C723.796 529.698 724.167 504.308 746.823 497C741.037 503.09 730.014 517.098 732.206 524.406C734.947 518.925 742.438 508.876 750.477 512.53C745.605 514.976 735.86 521.506 735.86 528.06C739.819 524.101 750.842 517.646 763.266 523.492C753.826 524.691 735.13 528.92 735.86 536.252C748.851 531.49 761.876 535.328 763.266 538.109C752.42 537.804 729.87 539.936 726.442 550.898C737.194 545.721 762.17 538.109 776.055 549.071C758.698 549.375 723.985 553.638 723.985 568.255C741.037 561.251 781.354 550.167 806.202 561.86C779.521 560.642 726.216 566.976 726.442 602.055C728.95 581.831 750.581 573.305 763.266 576.477C774.959 579.4 796.762 580.131 806.202 580.131C804.07 584.394 792.499 593.103 763.266 593.833Z" fill="#FADB96"/>
</g>
<path d="M719.5 643C709 643 708.455 641.337 708.455 637.683C708.455 634.76 706.628 620.631 705.714 613.931C704.8 613.018 703.339 610.643 704.8 608.45C713.631 609.059 731.841 609.912 734.033 608.45C736.774 606.623 735.86 613.404 734.033 613.931C733 620 730.338 634.183 730 637.683C729.662 641.183 730 643 719.5 643Z" fill="#8A6564"/>
</svg>