<svg class="illustration" width="1152" height="700" viewBox="0 0 1152 700" fill="none" xmlns="http://www.w3.org/2000/svg">
<g clip-path="url(#clip0)">
<path d="M246.288 305.878C270.545 466.517 475.594 566.767 550.206 566.147C693.512 564.957 456.841 492.491 774.561 439.955C1092.28 387.418 610.478 7.71081 511.917 135.354C447.889 218.275 215.968 105.08 246.288 305.878Z" fill="#ECE6E6"/>
<path d="M580.362 541.656C572.835 533.254 567.162 526.978 554.523 528.468C561.824 535.655 573.256 546.594 583.909 556.138C587.526 568.316 595.748 593.457 599.694 596.602C597.629 589.744 594.52 574.562 598.609 568.703C603.075 572.253 606.686 574.753 608.769 575.5C608.856 573.294 606.793 567.433 598.733 559.414C596.984 549.782 591.248 529.906 582.298 527.458L582.595 525.129C592.315 532.895 612.522 554.628 615.592 579.432C617.932 574.467 620.556 561.266 612.336 548.184C604.115 535.101 594.319 527.073 590.448 524.695C596.982 527.802 612.165 537.074 620.622 549.303C631.192 564.59 635.541 569.395 631.801 606.073C638.61 597.779 650.405 578.075 643.112 565.613C633.996 550.035 616.306 533.145 597.717 525.134C620.088 532.516 668.122 545.185 681.29 536.805C679.161 535.591 671.299 532.522 656.882 529.956C642.465 527.39 619.382 525.092 609.643 524.264C619.966 524.219 642.741 522.645 651.249 516.709C659.758 510.773 690.441 489.211 704.719 479.172C691.967 480.964 661.538 488.329 641.836 503.46C622.134 518.592 610.53 519.17 607.19 517.568C621.089 504.327 650.15 473.886 655.197 458.051C643.535 468.576 616.852 494.457 603.42 513.782C601.28 516.353 595.488 521.494 589.44 521.492C599.21 511.598 618.645 487.82 618.226 471.867C610.832 481.035 595.081 501.378 591.219 509.412C586.392 519.454 575.47 525.418 576.203 523.38C576.935 521.343 602.317 492.822 607.479 467.206C595.182 479.936 570.26 508.147 568.945 519.157C569.231 520.613 568.873 523.785 565.148 524.832C561.423 525.879 568.052 526.143 571.833 526.144C575.162 530.275 581.528 539.159 580.362 541.656Z" fill="#71809A"/>
<path d="M398.371 150.293C391.324 152.975 386.612 166.001 385.137 172.179C384.028 174.267 381.444 177.165 379.984 172.052C378.158 165.66 371.586 158.754 367.235 158.25C366.589 162.994 366.478 172.829 371.204 174.215C377.111 175.947 383.615 185.628 376.935 183.083C370.254 180.538 367.288 172.135 352.552 174.547C354.062 179.08 360.13 189.173 372.319 193.282C387.556 198.419 385.445 207.886 377.218 203.717C368.991 199.547 361.249 191.819 347.315 193.854C348.886 199.843 354.319 212.195 363.485 213.69C374.942 215.56 393.446 221.174 390.554 225.863C387.661 230.551 367.381 216.563 358.253 216.734C350.951 216.871 345.935 217.62 344.339 217.977C346.042 223.969 353.091 236.202 367.664 237.197C385.88 238.44 402.848 242.033 397.944 247.862C393.04 253.69 379.904 239.483 364.811 240.3C352.736 240.953 350.471 242.722 350.848 243.525C352.709 248.463 360.715 258.366 377.848 258.472C399.265 258.604 407.501 262.378 404.599 267.463C401.697 272.547 386.232 256.299 362.202 265.622C364.988 270.583 373.417 280.496 384.841 280.461C399.122 280.417 420.074 283.315 417.123 290.382C414.171 297.449 397.458 283.549 383.109 286.368C371.629 288.623 371.666 289.259 373.12 289.295C374.066 293.813 378.89 303.003 390.616 303.61C405.274 304.369 432.598 306.234 431.183 315.322C429.768 324.411 418.15 313.017 408.308 309.997C400.435 307.581 388.887 309.385 384.097 310.589C386.88 315.682 394.827 325.848 404.348 325.766C416.251 325.663 444.269 331.512 444.132 337.062C443.995 342.612 431.427 337.542 424.341 335.383C417.254 333.225 406.639 329.392 397.027 333.122C397.828 338.166 402.918 348.34 416.872 348.685C434.315 349.116 449.398 348.696 449.222 355.831C449.046 362.967 442.571 352.097 429.034 354.142C418.204 355.779 413.072 357.979 411.86 358.875C413.88 362.759 420.307 370.19 429.861 368.839C441.802 367.151 459.69 365.61 458.741 371.933C457.791 378.256 446.491 370.044 440.109 371.472C435.003 372.616 428.931 374.37 426.533 375.104C427.756 379.101 435.069 386.024 454.531 381.745C458.112 381.305 465.017 381.211 463.987 384.359C462.7 388.294 448.536 383.581 444.097 386.644C444.831 389.042 447.895 393.481 454.277 392.052C460.659 390.623 469.814 394.684 473.594 396.893C473.657 395.044 474.274 390.563 476.234 387.438C477.03 384.207 478.941 380.262 482.408 377.278C490.919 369.951 491.213 358.059 488.438 357.99C485.663 357.922 479.344 372.839 476.183 372.364C473.022 371.889 477.598 363.276 482.918 356.664C487.173 351.374 486.649 339.435 485.855 334.127C483.272 336.972 477.832 344.162 476.732 350.164L476.651 350.602C475.319 357.88 474.35 363.172 470.491 361.91C466.556 360.623 472.43 347.678 478.235 337.508C482.878 329.372 480.6 316.676 478.881 311.344C476.976 313.545 472.503 319.041 469.856 323.418C466.548 328.89 466.146 345.143 462.25 342.27C458.355 339.397 467.091 322.953 473.38 309.225C478.411 298.243 473.793 287.154 470.855 282.983C468.425 285.039 463.68 290.818 464.15 297.494C464.737 305.838 459.828 327.93 454.366 324.225C448.905 320.52 461.057 294.244 463.69 283.996C465.797 275.797 461.214 266.482 458.66 262.849C455.41 265.942 452.894 271.433 451.122 278.925C449.351 286.418 446.84 307.776 440.238 302.06C433.636 296.343 447.276 274.07 453.08 263.901C457.724 255.765 454.389 243.042 452.141 237.698C449.317 239.611 441.115 250.515 439.749 257.621C438.383 264.727 433.553 283.648 428.952 277.188C424.352 270.727 439.142 250.07 444.154 239.88C448.163 231.729 445.469 218.757 443.621 213.291C433.05 223.739 430.01 234.374 429.863 240.32C429.716 246.267 424.083 265.564 420.207 261.898C416.331 258.233 424.044 235.02 431.782 226.881C437.972 220.37 437.693 207.062 436.779 201.222C435.174 201.975 421.363 215.121 421.245 219.878C421.128 224.635 418.959 232.118 414.819 239.155C410.678 246.193 407.174 227.463 421.363 215.121C432.713 205.247 432.719 188.957 431.303 182.047C408.952 203.707 421.588 206.003 409.827 216.422C398.067 226.842 404.106 207.158 415.045 197.908C423.796 190.508 425.021 174.09 424.54 166.806C414.61 167.354 408.482 190.606 401.566 197.575C394.651 204.544 393.369 192.216 404.743 181.39C413.842 172.73 414.29 158.884 413.377 153.044C406.182 155.246 402.042 162.284 397.764 174.871C393.486 187.459 388.529 179.403 393.908 170.413C398.211 163.22 398.676 154.003 398.371 150.293Z" fill="#EE7E79"/>
<path d="M419.805 278.152C457.195 338.178 467.819 373.744 473.594 396.893C473.657 395.044 474.274 390.563 476.234 387.438C477.03 384.207 478.941 380.262 482.408 377.278C490.919 369.951 491.213 358.059 488.438 357.99C485.663 357.922 479.344 372.839 476.183 372.364C473.022 371.889 477.598 363.276 482.918 356.664C487.173 351.374 486.649 339.435 485.855 334.127C483.272 336.972 477.832 344.162 476.732 350.164L476.651 350.602C475.319 357.88 474.35 363.172 470.491 361.91C466.556 360.623 472.43 347.678 478.235 337.508C482.878 329.372 480.6 316.676 478.881 311.344C476.976 313.545 472.503 319.041 469.856 323.418C466.548 328.89 466.146 345.143 462.25 342.27C458.355 339.397 467.091 322.953 473.38 309.225C478.411 298.243 473.793 287.154 470.855 282.983C468.425 285.039 463.68 290.818 464.15 297.494C464.737 305.838 459.828 327.93 454.366 324.225C448.905 320.52 461.057 294.244 463.69 283.996C465.797 275.797 461.214 266.482 458.66 262.849C455.41 265.942 452.894 271.433 451.122 278.925C449.351 286.418 446.84 307.776 440.238 302.06C433.636 296.343 447.276 274.07 453.08 263.901C457.724 255.765 454.389 243.042 452.141 237.698C449.317 239.611 441.115 250.515 439.749 257.621C438.383 264.727 433.553 283.648 428.952 277.188C424.352 270.727 439.142 250.07 444.154 239.88C448.163 231.729 445.469 218.757 443.621 213.291C433.05 223.739 430.01 234.374 429.863 240.32C429.716 246.267 424.083 265.564 420.207 261.898C416.331 258.233 424.044 235.02 431.782 226.881C437.972 220.37 437.693 207.062 436.779 201.222C435.174 201.975 421.363 215.121 421.245 219.878C421.128 224.635 418.959 232.118 414.819 239.155C410.678 246.193 407.174 227.463 421.363 215.121C432.713 205.247 432.719 188.957 431.303 182.047C408.952 203.707 421.588 206.003 409.827 216.422C398.067 226.842 404.106 207.158 415.045 197.908C423.796 190.508 425.021 174.09 424.54 166.806C414.61 167.354 408.482 190.606 401.566 197.575C394.651 204.544 393.369 192.216 404.743 181.39C413.842 172.73 414.29 158.884 413.377 153.044C406.182 155.246 402.042 162.284 397.764 174.871C393.486 187.459 388.529 179.403 393.908 170.413C398.211 163.22 398.676 154.003 398.371 150.293C391.324 152.975 386.612 166.001 385.137 172.179C384.23 187.494 389.893 230.13 419.805 278.152Z" fill="#EDC7C5"/>
<path d="M836.002 375.657L683.817 466.665L463.858 330.152L599.864 249.851L836.002 375.657Z" fill="#3434ff"/>
<path d="M456.426 327.896V162.026C456.426 154.394 464.63 149.575 471.296 153.292L683.924 271.854C687.091 273.62 689.054 276.962 689.054 280.588V460.161C689.054 463.504 685.437 465.595 682.541 463.926L461.434 336.561C458.335 334.776 456.426 331.472 456.426 327.896Z" fill="#4B5361"/>
<path d="M462.857 326.625V159.697C462.857 158.163 464.514 157.2 465.847 157.96L681.076 280.571C681.7 280.927 682.086 281.59 682.086 282.309V450.815C682.086 452.354 680.419 453.317 679.086 452.547L463.858 328.357C463.239 328 462.857 327.339 462.857 326.625Z" fill="white"/>
<path d="M446.777 336.356C448.652 335.284 451.182 334.575 453.296 334.151C455.316 333.745 457.384 334.228 459.169 335.256L681.643 463.409C682.238 463.752 682.763 464.084 682.968 464.739C683.605 466.777 682.098 468.836 680.256 469.916C637.906 494.746 557.4 542.048 552.371 545.4C547.97 548.334 544.301 548.602 542.437 548.282C541.903 548.191 541.415 547.944 540.945 547.674L458.569 500.375C457.855 500.554 456.104 500.804 454.817 500.375C453.531 499.946 420.334 480.185 403.896 470.358C402.467 469.465 399.608 467.357 399.608 466.07C374.416 451.419 322.959 421.474 318.671 418.901C316.572 417.642 315.843 416.074 315.792 414.613C315.767 413.894 315.907 413.2 316.128 412.582C316.566 411.36 317.613 410.545 318.738 409.898C361.261 385.471 443.815 338.048 446.777 336.356Z" fill="#fd3d72"/>
<path d="M407.649 468.214C406.976 467.794 406.305 467.449 405.653 467.167C402.383 465.756 400.876 468.47 403.896 470.359C420.334 480.185 453.531 499.946 454.817 500.375C454.89 500.399 454.963 500.421 455.038 500.441C457.062 500.98 458.555 498.537 457.226 496.918C456.969 496.605 456.793 496.527 456.441 496.326C441.252 487.645 411.04 470.334 407.649 468.214Z" fill="#FFEEC7"/>
<path d="M394.637 463.179C368.216 447.811 322.693 421.315 318.671 418.901C317.534 418.219 314.927 418.584 315.094 419.899C315.491 423.028 317.072 425.905 318.314 427.559C318.543 427.865 318.827 428.103 319.158 428.294C392.576 470.554 539.084 554.728 541.651 555.584C543.863 556.321 548.346 555.527 551.149 554.835C551.965 554.634 552.738 554.297 553.463 553.872L678.214 480.76C681.276 478.965 683.158 475.682 683.158 472.132V468.214C641.706 492.513 557.517 541.969 552.371 545.4C547.97 548.334 544.301 548.602 542.437 548.282C541.903 548.191 541.415 547.944 540.945 547.675L461.86 502.264C459.749 501.052 457.127 501.145 454.817 500.375C453.531 499.946 420.334 480.185 403.896 470.358C403.778 470.284 403.65 470.202 403.514 470.112C400.542 468.15 397.715 464.969 394.637 463.179Z" fill="#A4C3FE"/>
<path d="M408.072 448.695L439.922 429.758C441.175 429.012 442.735 429.008 443.992 429.747L512.833 470.185C515.442 471.717 515.471 475.48 512.885 477.052L480.993 496.445C479.729 497.214 478.143 497.222 476.871 496.466L408.073 455.572C405.465 454.022 405.465 450.246 408.072 448.695Z" fill="white"/>
<path d="M594.108 361.619V256.565C594.108 256.095 594.615 255.799 595.025 256.029L595.942 256.545L671.862 299.25C672.807 299.782 673.391 300.781 673.391 301.865V407.051C673.391 407.661 672.734 408.043 672.204 407.742L595.626 364.227C594.688 363.694 594.108 362.698 594.108 361.619Z" fill="#E2E8F2"/>
<path d="M492.173 283.031V219.528C492.173 218.98 492.764 218.635 493.241 218.906L494.309 219.512L545.774 251.624C546.652 252.172 547.186 253.134 547.186 254.17V317.82C547.186 318.517 546.417 318.94 545.828 318.568L493.571 285.567C492.701 285.018 492.173 284.06 492.173 283.031Z" fill="#E2E8F2"/>
<path d="M473.659 294.02V230.443C473.659 229.893 474.253 229.547 474.731 229.818C475.914 228.707 477.503 228.088 478.728 227.783C479.581 227.571 480.492 227.852 481.213 228.355C485.972 231.675 505.33 244.645 530.476 259.17C531.906 260.242 534.764 262.922 534.764 265.066V323.307C534.764 324.103 534.452 324.884 533.853 325.407C532.674 326.439 530.812 327.88 528.868 328.852C528.868 329.55 528.099 329.975 527.508 329.602L475.06 296.559C474.188 296.009 473.659 295.051 473.659 294.02Z" fill="#4B5361"/>
<path d="M475.803 230.425L527.454 262.578C528.334 263.125 528.869 264.088 528.869 265.125V328.852C530.812 327.88 532.674 326.439 533.854 325.407C534.452 324.884 534.765 324.103 534.765 323.307V265.066C534.765 262.922 531.906 260.242 530.477 259.17C505.33 244.645 485.973 231.675 481.213 228.355C480.492 227.852 479.581 227.571 478.728 227.783C477.816 228.011 476.7 228.412 475.702 229.062C475.189 229.395 475.271 230.124 475.803 230.425Z" fill="#FFEEC7"/>
<ellipse cx="479.019" cy="238.266" rx="1.07202" ry="1.60803" fill="white"/>
<ellipse cx="482.235" cy="240.41" rx="1.07202" ry="1.60803" fill="white"/>
<ellipse cx="485.451" cy="242.554" rx="1.07202" ry="1.60803" fill="white"/>
<path d="M483.308 246.306L519.22 268.282V282.255L483.308 261.055V246.306Z" fill="#FFEEC7"/>
<path d="M483.308 274.179L495.1 282.182V296.155L483.308 288.928V274.179Z" fill="#FFEEC7"/>
<path d="M504.748 287.043L516.54 295.046V309.019L504.748 301.792V287.043Z" fill="#FFEEC7"/>
<path d="M483.308 264.53L518.148 285.435V288.651L483.308 267.746V264.53Z" fill="white"/>
<path d="M483.308 291.331L494.564 298.299V301.515L483.308 294.547V291.331Z" fill="white"/>
<path d="M504.748 304.195L516.004 311.163V314.379L504.748 307.411V304.195Z" fill="white"/>
<path d="M565.853 363.915V258.347C565.853 257.878 566.359 257.583 566.767 257.814C568.443 256.879 571.888 255.101 572.253 255.467C572.619 255.833 621.785 284.271 646.322 298.445C647.541 299.359 649.979 301.645 649.979 303.474V404.669C649.979 405.465 649.667 406.21 649.064 406.729C648.054 407.598 646.534 408.755 644.95 409.547C644.95 410.158 644.29 410.541 643.759 410.237L567.363 366.519C566.429 365.984 565.853 364.991 565.853 363.915Z" fill="#4B5361"/>
<path d="M567.681 258.332L643.428 301.241C644.368 301.773 644.95 302.77 644.95 303.851V409.547C646.533 408.755 648.054 407.598 649.064 406.729C649.667 406.21 649.979 405.465 649.979 404.669V303.474C649.979 301.645 647.54 299.359 646.321 298.445C621.784 284.271 572.619 255.833 572.253 255.467C571.946 255.16 569.468 256.364 567.689 257.312C567.283 257.528 567.28 258.105 567.681 258.332Z" fill="#FFEEC7"/>
<ellipse cx="569.51" cy="262.783" rx="0.91442" ry="1.37163" fill="white"/>
<ellipse cx="572.253" cy="264.611" rx="0.91442" ry="1.37163" fill="white"/>
<ellipse cx="574.996" cy="266.44" rx="0.91442" ry="1.37163" fill="white"/>
<path d="M577.74 311.704L589.628 318.988V330.907L577.74 324.285V311.704Z" fill="#FFEEC7"/>
<path d="M597.857 325.42L616.146 336.393V339.137L597.857 328.163V325.42Z" fill="white"/>
<path d="M596.942 331.821L609.744 340.051V342.794L596.942 334.564V331.821Z" fill="white"/>
<path d="M577.74 330.907L589.628 338.191V350.11L577.74 343.488V330.907Z" fill="#FFEEC7"/>
<path d="M597.857 344.623L616.146 355.596V358.339L597.857 347.366V344.623Z" fill="white"/>
<path d="M596.942 351.024L609.744 359.254V361.997L596.942 353.767V351.024Z" fill="white"/>
<path d="M577.74 350.11L589.628 357.393V369.312L577.74 362.691V350.11Z" fill="#FFEEC7"/>
<path d="M597.857 363.826L616.146 374.799V377.542L597.857 366.569V363.826Z" fill="white"/>
<path d="M596.942 370.227L609.744 378.457V381.2L596.942 372.97V370.227Z" fill="white"/>
<path d="M633.52 305.74V323.764L577.74 291.322V273.298L633.52 305.74Z" fill="white"/>
<path d="M577.74 304.839V298.531L633.52 330.072V335.479L577.74 304.839Z" fill="white"/>
<path d="M406.418 386.573L598.153 500.644" stroke="white"/>
<path d="M420.171 375.247L611.906 490.127" stroke="white"/>
<path d="M437.97 363.921L630.514 478.8" stroke="white"/>
<path d="M450.913 352.595L642.648 467.474" stroke="white"/>
</g>
<defs>
<clipPath id="clip0">
<rect width="1152" height="700" fill="white"/>
</clipPath>
</defs>
</svg>