<svg class="illustration" width="1152" height="700" viewBox="0 0 1152 700" fill="none" xmlns="http://www.w3.org/2000/svg">
<g clip-path="url(#clip0)">
<g filter="url(#filter0_d)">
<rect x="244.512" y="198.93" width="600" height="450" transform="rotate(-10 244.512 198.93)" fill="white"/>
<path d="M238 162L828.885 57.8111L835.396 94.7414L244.512 198.93L238 162Z" fill="#212C4F"/>
<circle cx="276.339" cy="174.279" r="9.375" transform="rotate(-10 276.339 174.279)" fill="#EE7675"/>
<circle cx="305.884" cy="169.07" r="9.375" transform="rotate(-10 305.884 169.07)" fill="#FFD05E"/>
<circle cx="335.429" cy="163.86" r="9.375" transform="rotate(-10 335.429 163.86)" fill="#80E991"/>
<circle cx="401.168" cy="512.922" r="40.8292" transform="rotate(-10 401.168 512.922)" fill="#E9695B"/>
<circle cx="429.828" cy="550.512" r="40.8292" transform="rotate(-10 429.828 550.512)" fill="#FBD462"/>
<circle cx="388.471" cy="557.804" r="40.8292" transform="rotate(-10 388.471 557.804)" fill="#3EC7A0"/>
<path fill-rule="evenodd" clip-rule="evenodd" d="M389.017 551.91C388.305 531.882 402.438 513.881 422.737 510.301C429.388 509.129 435.946 509.637 441.977 511.522C442.689 531.549 428.555 549.551 408.256 553.13C401.605 554.303 395.047 553.794 389.017 551.91Z" fill="#E1AD61"/>
<path fill-rule="evenodd" clip-rule="evenodd" d="M362.563 526.237C367.811 521.922 374.211 518.859 381.379 517.595C401.439 514.058 420.657 525.815 427.073 544.489C421.824 548.805 415.425 551.867 408.256 553.131C388.197 556.668 368.978 544.911 362.563 526.237Z" fill="#F28F5B"/>
<path fill-rule="evenodd" clip-rule="evenodd" d="M415.23 588.649C425.692 579.556 431.261 565.359 428.679 550.714C426.097 536.07 416.008 524.634 403.068 519.667C392.606 528.761 387.037 542.957 389.619 557.602C392.201 572.247 402.29 583.682 415.23 588.649Z" fill="#54A8A0"/>
<path fill-rule="evenodd" clip-rule="evenodd" d="M403.067 519.666C393.969 527.575 388.571 539.343 389.018 551.909C395.048 553.794 401.607 554.303 408.258 553.13C415.426 551.866 421.825 548.803 427.074 544.488C423.077 532.854 414.111 523.905 403.067 519.666Z" fill="white"/>
<rect x="462" y="397.195" width="145.092" height="48.3638" rx="8.59802" transform="rotate(-10 462 397.195)" fill="#5fcff8"/>
<path d="M510.387 419.05C512.933 418.601 514.281 417.008 513.911 414.908C513.632 413.328 512.233 412.356 510.59 412.517L510.579 412.451C511.81 412.038 512.593 410.774 512.363 409.468C512.041 407.641 510.433 406.739 508.192 407.134L502.999 408.05L505.103 419.982L510.387 419.05ZM505.824 409.47L507.875 409.108C509.041 408.903 509.807 409.33 509.976 410.29C510.154 411.298 509.496 412.02 508.165 412.254L506.371 412.571L505.824 409.47ZM507.272 417.681L506.661 414.216L508.753 413.847C510.225 413.588 511.132 414.042 511.329 415.158C511.53 416.299 510.861 417.048 509.422 417.302L507.272 417.681ZM516.328 405.699L513.831 406.14L515.191 413.855C515.655 416.484 517.915 417.936 520.974 417.396C524.025 416.858 525.652 414.721 525.189 412.092L523.828 404.377L521.331 404.817L522.648 412.284C522.917 413.814 522.192 414.973 520.597 415.255C518.992 415.538 517.915 414.696 517.645 413.166L516.328 405.699ZM533.275 415.014L531.534 405.141L534.99 404.532L534.627 402.473L525.226 404.131L525.589 406.19L529.037 405.582L530.778 415.455L533.275 415.014ZM543.462 413.218L541.721 403.345L545.178 402.735L544.815 400.676L535.413 402.334L535.776 404.393L539.224 403.785L540.965 413.658L543.462 413.218ZM550.881 399.394C547.342 400.018 545.544 402.782 546.215 406.585C546.884 410.381 549.519 412.363 553.058 411.739C556.588 411.117 558.394 408.351 557.725 404.556C557.054 400.752 554.412 398.771 550.881 399.394ZM551.248 401.478C553.2 401.133 554.728 402.501 555.17 405.006C555.61 407.504 554.64 409.303 552.689 409.647C550.729 409.993 549.202 408.634 548.762 406.136C548.32 403.631 549.297 401.822 551.248 401.478ZM562.779 409.812L561.401 401.998L561.475 401.985L568.434 408.815L570.502 408.45L568.398 396.518L566.008 396.94L567.379 404.712L567.312 404.724L560.369 397.934L558.285 398.301L560.389 410.233L562.779 409.812Z" fill="white"/>
<circle cx="645.923" cy="284.923" r="50" transform="rotate(-10 645.923 284.923)" fill="#d8357b"/>
<path d="M627.992 266.881C627.269 262.781 631.58 259.644 635.259 261.595L665.058 277.398C667.935 278.923 668.609 282.748 666.428 285.165L643.83 310.207C641.041 313.298 635.917 311.826 635.194 307.726L627.992 266.881Z" fill="white"/>
<rect x="296.904" y="217.49" width="15" height="187.5" rx="7.5" transform="rotate(-10 296.904 217.49)" fill="#D9D9D9"/>
<rect x="312.988" y="308.708" width="15" height="94.875" rx="7.5" transform="rotate(-10 312.988 308.708)" fill="#87D4E8"/>
<rect x="299.957" y="299.582" width="37.5" height="18.75" rx="9.375" transform="rotate(-10 299.957 299.582)" fill="#1380B6"/>
<rect x="605" y="164.949" width="208.106" height="29.7294" rx="7.92784" transform="rotate(-10 605 164.949)" fill="#56CCF2"/>
<rect x="606.723" y="166.154" width="104.053" height="26.7564" rx="6.34227" transform="rotate(-10 606.723 166.154)" fill="white"/>
<path d="M640.666 179.88L639.902 175.549L644.378 174.76L644.057 172.938L639.581 173.727L639.061 170.776L643.963 169.912L643.629 168.013L636.423 169.284L638.363 180.286L640.666 179.88ZM649.236 178.369L647.296 167.367L644.993 167.773L646.933 178.775L649.236 178.369ZM651.746 168.437L653.705 168.092C654.849 167.89 655.686 168.45 655.875 169.517C656.067 170.608 655.505 171.391 654.346 171.595L652.364 171.945L651.746 168.437ZM652.658 173.614L654.504 173.289L657.264 176.953L659.872 176.493L656.784 172.533C657.962 171.814 658.479 170.465 658.23 169.055C657.847 166.882 656.163 165.803 653.632 166.249L649.126 167.044L651.066 178.046L653.368 177.64L652.658 173.614ZM660.105 173.221C660.538 175.275 662.444 176.236 665.09 175.77C667.82 175.288 669.312 173.634 668.936 171.499C668.64 169.821 667.513 169.045 665.226 168.961L663.842 168.914C662.525 168.848 661.924 168.561 661.805 167.882C661.661 167.066 662.328 166.391 663.464 166.19C664.615 165.987 665.53 166.408 665.771 167.324L667.928 166.944C667.539 164.961 665.698 163.925 663.136 164.377C660.681 164.81 659.164 166.461 659.522 168.489C659.805 170.098 660.986 170.951 663.09 171.028L664.579 171.088C665.958 171.151 666.554 171.455 666.68 172.172C666.823 172.98 666.088 173.715 664.86 173.931C663.64 174.146 662.59 173.718 662.323 172.83L660.105 173.221ZM675.868 173.673L674.263 164.569L677.45 164.007L677.115 162.109L668.446 163.637L668.781 165.536L671.96 164.975L673.565 174.079L675.868 173.673Z" fill="#23BCE7"/>
<path d="M725.993 161.155C726.426 163.209 728.333 164.17 730.978 163.704C733.708 163.223 735.201 161.568 734.824 159.433C734.528 157.756 733.401 156.98 731.114 156.895L729.73 156.849C728.414 156.782 727.813 156.495 727.693 155.816C727.549 155.001 728.216 154.325 729.352 154.124C730.503 153.921 731.419 154.342 731.659 155.259L733.817 154.878C733.428 152.895 731.586 151.86 729.025 152.311C726.569 152.744 725.052 154.395 725.41 156.423C725.694 158.032 726.874 158.885 728.979 158.962L730.467 159.022C731.846 159.086 732.442 159.389 732.569 160.106C732.711 160.914 731.976 161.649 730.749 161.866C729.529 162.081 728.478 161.653 728.212 160.764L725.993 161.155ZM743.776 159.285L738.79 160.165L738.3 157.389L743.005 156.56L742.693 154.791L737.988 155.62L737.521 152.967L742.507 152.088L742.172 150.189L734.883 151.475L736.823 162.477L744.112 161.192L743.776 159.285ZM750.672 160.231C753.371 159.755 754.98 157.868 754.807 155.367L752.565 155.762C752.551 157.109 751.708 158.083 750.344 158.324C748.582 158.634 747.221 157.381 746.807 155.032C746.399 152.715 747.263 151.061 749.001 150.754C750.343 150.518 751.536 151.219 751.987 152.531L754.229 152.136C753.619 149.704 751.311 148.382 748.665 148.848C745.478 149.41 743.835 151.909 744.46 155.454C745.087 159.007 747.47 160.796 750.672 160.231ZM759.896 146.868C756.633 147.443 754.975 149.992 755.593 153.499C756.211 156.999 758.64 158.826 761.903 158.251C765.159 157.677 766.824 155.127 766.207 151.628C765.588 148.12 763.151 146.294 759.896 146.868ZM760.235 148.789C762.034 148.472 763.443 149.733 763.851 152.043C764.257 154.346 763.362 156.005 761.563 156.322C759.756 156.641 758.348 155.387 757.942 153.085C757.534 150.775 758.435 149.106 760.235 148.789ZM770.866 156.474L769.596 149.269L769.664 149.257L776.081 155.554L777.987 155.218L776.047 144.216L773.844 144.605L775.108 151.772L775.047 151.783L768.644 145.522L766.723 145.861L768.663 156.863L770.866 156.474ZM777.885 143.892L779.825 154.894L784.026 154.154C787.327 153.572 788.91 151.178 788.294 147.686C787.678 144.194 785.387 142.569 782.086 143.152L777.885 143.892ZM780.522 145.385L782.146 145.098C784.174 144.741 785.541 145.805 785.947 148.107C786.367 150.486 785.474 151.933 783.415 152.296L781.791 152.582L780.522 145.385Z" fill="white"/>
<rect x="502" y="180.835" width="75" height="37.5" rx="10" transform="rotate(-10 502 180.835)" fill="#F0F3F5"/>
<circle cx="542.186" cy="192.788" r="7.5" transform="rotate(-10 542.186 192.788)" fill="#4299C5"/>
<circle cx="560.651" cy="189.531" r="7.5" transform="rotate(-10 560.651 189.531)" fill="#30779A"/>
<circle cx="523.722" cy="196.044" r="7.5" transform="rotate(-10 523.722 196.044)" fill="#87D4E8"/>
<rect opacity="0.9" x="809.908" y="322.216" width="37.6659" height="37.6659" rx="7.23185" transform="rotate(-10 809.908 322.216)" fill="#1A688F"/>
<rect opacity="0.8" x="792.453" y="309.994" width="37.6659" height="37.6659" rx="7.23185" transform="rotate(-10 792.453 309.994)" fill="#1380B6"/>
<rect opacity="0.7" x="775" y="297.773" width="37.6659" height="37.6659" rx="7.23185" transform="rotate(-10 775 297.773)" fill="#53C1DE"/>
<rect x="726" y="438.273" width="123.59" height="92.6921" rx="8.2393" transform="rotate(-10 726 438.273)" fill="#C6D0EB"/>
<rect x="733.158" y="443.286" width="111.231" height="80.3332" rx="4.11965" transform="rotate(-10 733.158 443.286)" fill="#14F1D9"/>
<circle cx="759.718" cy="458.681" r="12.359" transform="rotate(-10 759.718 458.681)" fill="white"/>
<path opacity="0.6" d="M849.688 497.408L808.868 450.957L788.071 508.273L849.688 497.408Z" fill="black"/>
<path opacity="0.2" d="M809.369 504.518L779.49 472.138L763.727 512.566L809.369 504.518Z" fill="black"/>
<circle cx="601.754" cy="512.754" r="30" transform="rotate(-10 601.754 512.754)" fill="#F0F3F5"/>
<rect opacity="0.9" x="595.221" y="489.536" width="3.6" height="15" rx="1.8" transform="rotate(-10 595.221 489.536)" fill="black"/>
<rect opacity="0.6" x="601.543" y="521.93" width="3.6" height="15" rx="1.8" transform="rotate(-10 601.543 521.93)" fill="black" fill-opacity="0.7"/>
<rect opacity="0.75" x="610.928" y="512.963" width="3.6" height="15" rx="1.8" transform="rotate(-100 610.928 512.963)" fill="black" fill-opacity="0.85"/>
<rect opacity="0.45" x="578.43" y="518.695" width="3.6" height="15" rx="1.8" transform="rotate(-100 578.43 518.695)" fill="black" fill-opacity="0.55"/>
<rect opacity="0.85" x="607.707" y="489.38" width="3.6" height="15" rx="1.8" transform="rotate(20 607.707 489.38)" fill="black" fill-opacity="0.95"/>
<rect opacity="0.55" x="596.982" y="520.595" width="3.6" height="15" rx="1.8" transform="rotate(20 596.982 520.595)" fill="black" fill-opacity="0.65"/>
<rect opacity="0.7" x="609.594" y="517.524" width="3.6" height="15" rx="1.8" transform="rotate(-70 609.594 517.524)" fill="black" fill-opacity="0.8"/>
<rect opacity="0.4" x="578.584" y="506.238" width="3.6" height="15" rx="1.8" transform="rotate(-70 578.584 506.238)" fill="black" fill-opacity="0.5"/>
<rect opacity="0.35" x="584.488" y="495.912" width="3.6" height="15" rx="1.8" transform="rotate(-40 584.488 495.912)" fill="black" fill-opacity="0.45"/>
<rect opacity="0.65" x="606.16" y="520.806" width="3.6" height="15" rx="1.8" transform="rotate(-40 606.16 520.806)" fill="black" fill-opacity="0.75"/>
<rect opacity="0.8" x="609.805" y="508.349" width="3.6" height="15" rx="1.8" transform="rotate(-130 609.805 508.349)" fill="black" fill-opacity="0.9"/>
<rect opacity="0.5" x="584.525" y="529.559" width="3.6" height="15" rx="1.8" transform="rotate(-130 584.525 529.559)" fill="black" fill-opacity="0.6"/>
<path fill-rule="evenodd" clip-rule="evenodd" d="M442.23 300.514L443.612 308.35L445.618 307.996L444.236 300.161L466.521 296.231L467.903 304.068L469.909 303.714L468.527 295.878L474.357 294.85L474.003 292.844L468.173 293.872L464.52 273.155L470.35 272.127L469.996 270.121L464.166 271.149L460.237 248.864L466.067 247.836L465.713 245.83L459.883 246.858L458.855 241.029L456.85 241.383L457.877 247.212L435.593 251.141L434.565 245.311L432.559 245.665L433.587 251.495L412.87 255.148L411.842 249.318L409.836 249.671L410.864 255.502L403.028 256.883L403.382 258.889L411.217 257.507L415.147 279.792L407.311 281.174L407.665 283.18L415.501 281.798L419.154 302.515L411.318 303.897L411.671 305.903L419.507 304.521L420.889 312.357L422.895 312.003L421.513 304.167L442.23 300.514ZM443.883 298.155L466.167 294.225L462.514 273.508L440.23 277.438L443.883 298.155ZM438.224 277.791L441.877 298.508L421.159 302.162L417.506 281.444L438.224 277.791ZM439.876 275.432L462.16 271.502L458.231 249.218L435.947 253.147L439.876 275.432ZM433.941 253.501L437.87 275.785L417.153 279.438L413.223 257.154L433.941 253.501Z" fill="#4B4B4B"/>
</g>
</g>
<defs>
<filter id="filter0_d" x="198" y="37.8111" width="755.538" height="664.282" filterUnits="userSpaceOnUse" color-interpolation-filters="sRGB">
<feFlood flood-opacity="0" result="BackgroundImageFix"/>
<feColorMatrix in="SourceAlpha" type="matrix" values="0 0 0 0 0 0 0 0 0 0 0 0 0 0 0 0 0 0 127 0"/>
<feOffset dy="20"/>
<feGaussianBlur stdDeviation="20"/>
<feColorMatrix type="matrix" values="0 0 0 0 0 0 0 0 0 0 0 0 0 0 0 0 0 0 0.25 0"/>
<feBlend mode="normal" in2="BackgroundImageFix" result="effect1_dropShadow"/>
<feBlend mode="normal" in="SourceGraphic" in2="effect1_dropShadow" result="shape"/>
</filter>
<clipPath id="clip0">
<rect width="1152" height="700" fill="white"/>
</clipPath>
</defs>
</svg>