<svg class="illustration" width="1152" height="700" viewBox="0 0 1152 700" fill="none" xmlns="http://www.w3.org/2000/svg">
<rect x="457.979" y="198.648" width="266.477" height="355.303" rx="6.29832" fill="#3434ff"/>
<rect opacity="0.8" x="467.489" y="214.082" width="247.452" height="324.435" stroke="white" stroke-width="1.25966"/>
<line opacity="0.8" x1="609.257" y1="539.147" x2="609.257" y2="213.453" stroke="white" stroke-width="0.629832"/>
<line opacity="0.8" x1="573.728" y1="539.147" x2="573.728" y2="213.453" stroke="white" stroke-width="0.629832"/>
<line opacity="0.8" x1="538.197" y1="539.147" x2="538.197" y2="213.453" stroke="white" stroke-width="0.629832"/>
<line opacity="0.8" x1="680.318" y1="539.147" x2="680.318" y2="213.453" stroke="white" stroke-width="0.629832"/>
<line opacity="0.8" x1="466.859" y1="358.22" x2="715.571" y2="358.22" stroke="white" stroke-width="0.629832"/>
<line opacity="0.8" x1="466.859" y1="393.75" x2="715.571" y2="393.75" stroke="white" stroke-width="0.629832"/>
<line opacity="0.8" x1="466.859" y1="287.159" x2="715.571" y2="287.159" stroke="white" stroke-width="0.629832"/>
<line opacity="0.8" x1="466.859" y1="322.69" x2="715.571" y2="322.69" stroke="white" stroke-width="0.629832"/>
<line opacity="0.8" x1="466.859" y1="251.629" x2="715.571" y2="251.629" stroke="white" stroke-width="0.629832"/>
<line opacity="0.8" x1="466.859" y1="464.811" x2="715.571" y2="464.811" stroke="white" stroke-width="0.629832"/>
<line opacity="0.8" x1="466.859" y1="500.341" x2="715.571" y2="500.341" stroke="white" stroke-width="0.629832"/>
<line opacity="0.8" x1="466.859" y1="429.281" x2="715.571" y2="429.281" stroke="white" stroke-width="0.629832"/>
<line opacity="0.8" x1="644.789" y1="539.147" x2="644.789" y2="213.453" stroke="white" stroke-width="0.629832"/>
<line opacity="0.8" x1="502.668" y1="539.147" x2="502.668" y2="213.453" stroke="white" stroke-width="0.629832"/>
<line opacity="0.9" x1="525.344" y1="441.577" x2="656.196" y2="310.724" stroke="white" stroke-width="1.25966" stroke-dasharray="6.3 6.3"/>
<line opacity="0.9" x1="526.234" y1="310.724" x2="657.087" y2="441.576" stroke="white" stroke-width="1.25966" stroke-dasharray="6.3 6.3"/>
<circle opacity="0.9" cx="591.216" cy="376.596" r="45.6335" stroke="white" stroke-width="1.25966" stroke-dasharray="6.3 6.3"/>
<rect x="529.596" y="314.681" width="123.239" height="123.239" rx="28.3424" stroke="white" stroke-width="6.29832"/>
<circle cx="591.215" cy="376.3" r="52.3669" stroke="white" stroke-width="6.29832"/>
<g filter="url(#filter0_d)">
<rect x="616.48" y="157.858" width="304.968" height="53.2954" transform="rotate(134.607 616.48 157.858)" fill="#fd3d72"/>
</g>
<rect opacity="0.1" x="589.078" y="130.829" width="304.968" height="14.8043" transform="rotate(134.607 589.078 130.829)" fill="black"/>
<rect x="606.027" y="160.024" width="2.96086" height="14.8043" transform="rotate(134.607 606.027 160.024)" fill="#4B4B4B"/>
<rect x="593.553" y="172.671" width="2.96086" height="8.88257" transform="rotate(134.607 593.553 172.671)" fill="#4B4B4B"/>
<rect x="581.078" y="185.32" width="2.96086" height="8.88257" transform="rotate(134.607 581.078 185.32)" fill="#4B4B4B"/>
<rect x="568.602" y="197.967" width="2.96086" height="8.88257" transform="rotate(134.607 568.602 197.967)" fill="#4B4B4B"/>
<rect x="556.125" y="210.615" width="2.96086" height="14.8043" transform="rotate(134.607 556.125 210.615)" fill="#4B4B4B"/>
<rect x="543.65" y="223.262" width="2.96086" height="8.88257" transform="rotate(134.607 543.65 223.262)" fill="#4B4B4B"/>
<rect x="531.176" y="235.909" width="2.96086" height="8.88257" transform="rotate(134.607 531.176 235.909)" fill="#4B4B4B"/>
<rect x="518.699" y="248.558" width="2.96086" height="8.88257" transform="rotate(134.607 518.699 248.558)" fill="#4B4B4B"/>
<rect x="506.225" y="261.205" width="2.96086" height="14.8043" transform="rotate(134.607 506.225 261.205)" fill="#4B4B4B"/>
<rect x="493.748" y="273.853" width="2.96086" height="8.88257" transform="rotate(134.607 493.748 273.853)" fill="#4B4B4B"/>
<rect x="481.273" y="286.5" width="2.96086" height="8.88257" transform="rotate(134.607 481.273 286.5)" fill="#4B4B4B"/>
<rect x="468.799" y="299.148" width="2.96086" height="8.88257" transform="rotate(134.607 468.799 299.148)" fill="#4B4B4B"/>
<rect x="456.322" y="311.796" width="2.96086" height="14.8043" transform="rotate(134.607 456.322 311.796)" fill="#4B4B4B"/>
<rect x="443.848" y="324.443" width="2.96086" height="8.88257" transform="rotate(134.607 443.848 324.443)" fill="#4B4B4B"/>
<rect x="431.371" y="337.091" width="2.96086" height="8.88257" transform="rotate(134.607 431.371 337.091)" fill="#4B4B4B"/>
<rect x="418.896" y="349.739" width="2.96086" height="8.88257" transform="rotate(134.607 418.896 349.739)" fill="#4B4B4B"/>
<rect x="406.422" y="362.387" width="2.96086" height="14.8043" transform="rotate(134.607 406.422 362.387)" fill="#4B4B4B"/>
<g filter="url(#filter1_d)">
<rect x="636.529" y="599.058" width="13.5353" height="29.6086" transform="rotate(130.405 636.529 599.058)" fill="#D9D9D9"/>
<path d="M628.67 608.292L618.617 620.101C618.617 620.101 616.149 623 605.037 613.541C593.603 603.808 596.071 600.909 596.071 600.909L606.124 589.1L628.67 608.292Z" fill="#E95F5D"/>
<path d="M774.073 437.476L761.644 452.078L739.098 432.886L751.527 418.284L783.637 403.402L774.073 437.476Z" fill="#EAB28F"/>
<path d="M779.498 418.5L783.638 403.4L769.498 410L779.498 418.5Z" fill="#242221"/>
<path d="M773.79 437.699L634.702 601.205L612.156 582.013L751.351 418.598L756.745 417.265L755.182 425.192L766.068 424.367L765.542 434.011L773.727 432.553L773.79 437.699Z" fill="#EAB28F"/>
<rect width="219.701" height="10.8898" transform="matrix(-0.647225 0.762299 -0.760656 -0.649155 773 439.441)" fill="#FFD05E"/>
<rect width="219.701" height="10.8898" transform="matrix(-0.647225 0.762299 -0.760656 -0.649155 765.752 433.255)" fill="#FFBE24"/>
<rect width="219.701" height="10.8898" transform="matrix(-0.647225 0.762299 -0.760656 -0.649155 758.504 427.069)" fill="#E3A923"/>
</g>
<defs>
<filter id="filter0_d" x="332.885" y="101.537" width="315.088" height="317.528" filterUnits="userSpaceOnUse" color-interpolation-filters="sRGB">
<feFlood flood-opacity="0" result="BackgroundImageFix"/>
<feColorMatrix in="SourceAlpha" type="matrix" values="0 0 0 0 0 0 0 0 0 0 0 0 0 0 0 0 0 0 127 0"/>
<feOffset dy="12.5966"/>
<feGaussianBlur stdDeviation="15.7458"/>
<feColorMatrix type="matrix" values="0 0 0 0 0 0 0 0 0 0 0 0 0 0 0 0 0 0 0.25 0"/>
<feBlend mode="normal" in2="BackgroundImageFix" result="effect1_dropShadow"/>
<feBlend mode="normal" in="SourceGraphic" in2="effect1_dropShadow" result="shape"/>
</filter>
<filter id="filter1_d" x="562.112" y="374.911" width="264.29" height="292.178" filterUnits="userSpaceOnUse" color-interpolation-filters="sRGB">
<feFlood flood-opacity="0" result="BackgroundImageFix"/>
<feColorMatrix in="SourceAlpha" type="matrix" values="0 0 0 0 0 0 0 0 0 0 0 0 0 0 0 0 0 0 127 0"/>
<feOffset dy="12.5966"/>
<feGaussianBlur stdDeviation="15.7458"/>
<feColorMatrix type="matrix" values="0 0 0 0 0 0 0 0 0 0 0 0 0 0 0 0 0 0 0.25 0"/>
<feBlend mode="normal" in2="BackgroundImageFix" result="effect1_dropShadow"/>
<feBlend mode="normal" in="SourceGraphic" in2="effect1_dropShadow" result="shape"/>
</filter>
</defs>
</svg>