<svg class="illustration" width="1155" height="700" viewBox="0 0 1155 700" fill="none" xmlns="http://www.w3.org/2000/svg">
<path fill-rule="evenodd" clip-rule="evenodd" d="M539.989 148.5C550.258 125.586 564.619 112.384 576 107C592.902 116.469 604.526 131.086 612.201 148.5C618.66 163.152 622.323 179.785 623.985 197C643.823 211 683.6 244 684 264C684.4 284 684.167 294.667 684 297.5H662.362C662.408 300.795 662.257 303.894 662 306.5H629.5C629.124 303.933 628.847 300.827 628.79 297.5H615.951C614.521 303.66 613.014 309.368 611.5 314.5H542.5C540.772 308.695 539.205 303.029 537.788 297.5H524.574C524.644 300.996 524.492 304.291 524.22 307.039H491.72C491.324 304.334 491.038 301.03 491.003 297.5H470V264C470 245.2 508.519 211.5 527.779 197C529.69 177.503 534.186 161.45 539.989 148.5ZM576.933 321C555.099 322.167 524.533 341.5 576.933 409.5C598.933 382.167 629.733 326.2 576.933 321ZM695.986 411H466V559.378H553V584H541V594H616V584H604.108V559.378H695.986V411Z" fill="#3434ff"/>
<path d="M576.933 321C555.099 322.167 524.533 341.5 576.933 409.5C598.933 382.167 629.733 326.2 576.933 321Z" fill="#DAE4FA"/>
<path d="M576.932 321C565.932 322 550.532 334.6 576.932 377C588.266 360.167 604.132 325.4 576.932 321Z" fill="#FFCB56"/>
<g opacity="0.5">
<path d="M470 264C470 245.2 508.519 211.5 527.779 197C525.159 223.732 527.398 256.938 537.788 297.5H470V264Z" fill="#C4C4C4"/>
<path d="M684 264C683.6 244 643.823 211 623.985 197C627.365 232.017 622.463 269.441 615.951 297.5H684C684.167 294.667 684.4 284 684 264Z" fill="#C4C4C4"/>
</g>
<path d="M645 267.5C628.2 268.7 627.666 294 629.5 306.5H662C663.333 293 661.8 266.3 645 267.5Z" fill="#DAE4FA"/>
<path d="M507.22 268.039C490.42 269.239 489.887 294.539 491.72 307.039H524.22C525.554 293.539 524.02 266.839 507.22 268.039Z" fill="#DAE4FA"/>
<path opacity="0.5" d="M611.501 314.5H542.501C540.773 308.695 539.205 303.029 537.789 297.5H615.952C614.522 303.66 613.015 309.368 611.501 314.5Z" fill="#C4C4C4"/>
<path opacity="0.5" d="M537.789 297.5C527.399 256.938 525.16 223.732 527.78 197C529.691 177.503 534.187 161.45 539.99 148.5H612.202C618.66 163.152 622.324 179.785 623.986 197C627.366 232.017 622.464 269.441 615.952 297.5H537.789Z" fill="#4B5361"/>
<path d="M539.988 148.5C550.257 125.586 564.619 112.384 575.999 107C592.901 116.469 604.525 131.086 612.2 148.5H539.988Z" fill="#EE7E79"/>
<circle cx="577" cy="199" r="28" fill="#C4C4C4"/>
<circle cx="577" cy="199" r="15" fill="#DAE4FA"/>
<rect opacity="0.5" x="466" y="411" width="229.986" height="148.378" fill="#DAE4FA"/>
<rect opacity="0.8" x="479.189" y="422.539" width="203.608" height="119.527" fill="white"/>
<rect opacity="0.5" x="553" y="559.379" width="51.1081" height="24.7297" fill="#C4C4C4"/>
<rect opacity="0.5" x="541" y="584" width="75" height="10" fill="#C4C4C4"/>
<path opacity="0.5" d="M658 503H501C507.026 495.377 522.277 497.706 529.149 499.824C526.109 494.001 522.171 481.085 530.735 476.003C539.298 470.921 548.047 473.886 551.351 476.003C564.355 467.428 575.535 476.665 579.5 482.355C582.037 468.38 596.152 469.386 602.891 471.636C603.288 466.872 609.235 456.946 623.904 460.917C635.639 464.093 635.93 477.856 634.609 484.34C645.392 486.881 643.595 495.721 641.348 499.824H658V503Z" fill="#88B1FF"/>
<path d="M674.199 368.569C662.128 380.414 640.445 371.934 631.112 366.213C626.823 363.857 632.789 360.661 628.765 354.603C624.741 348.546 631.112 341.647 634.13 338.282C636.544 335.589 636.253 327.176 635.806 323.306C634.689 321.119 637.525 311.262 643.963 310.589C652.01 309.748 658.44 314.557 658.44 318.258C658.44 321.96 660.619 328.354 666.822 336.431C673.025 344.507 671.684 344.507 670.678 351.574C669.672 358.641 679.899 361.838 674.199 368.569Z" fill="#4B5361"/>
<path d="M662.5 379.499C661.019 378.286 648.5 373.497 639 375.998C639 375.998 635.72 377.058 635 378.498C630.5 387.498 632.183 430.998 632.183 430.998L632.183 474.169H646.151C646.151 474.169 645.46 449.961 646.151 433.498C646.651 421.583 649 401.498 649 401.498C650.5 409.498 654.261 423.829 655.575 427.509C657 431.498 668.259 453.148 675.552 467.073L687.5 459.998C681.722 447.252 670.547 427.033 669.5 422.498C668 415.998 664.351 381.015 662.5 379.499Z" fill="#EE7E79"/>
<path d="M645.544 481.926C646.084 477.755 644.643 474.919 643.854 474.022C642.503 475.771 638.111 475.311 636.084 474.863C631.016 477.217 621.117 482.296 622.063 483.776C623.009 485.256 638.111 483.159 645.544 481.926Z" fill="#8A6564"/>
<path d="M684.957 462.286C684.687 464.17 680.34 466.322 678.2 467.163C675.666 472.208 670 477.498 671.274 481.962C671.511 482.79 690.701 470.022 690.701 467.163C690.701 464.304 685.295 459.932 684.957 462.286Z" fill="#8A6564"/>
<path d="M643.854 339.066C636.692 336.509 637.492 328.247 638.787 324.435C640.645 325.276 643.854 322.753 645.544 322.753C647.233 322.753 648.246 325.948 649.767 327.798C651.287 329.648 655.172 329.984 653.99 331.498C653.044 332.709 650.78 335.814 649.767 337.216C650.33 338.729 651.388 342.194 651.118 343.943C650.848 345.692 646.163 344.671 643.854 343.943V339.066Z" fill="#8A6564"/>
<path d="M654.497 292.819C654.497 295.341 657.65 297.359 659.227 297.528C660.522 297.135 663.112 296.148 663.112 295.341C663.112 294.332 659.525 289.624 660 291.998C660.5 294.498 660.679 294.503 659.227 293.66C657.435 292.619 654.497 291.373 654.497 292.819Z" fill="#8A6564"/>
<path d="M635.577 297.528C634.361 297.528 631.804 296.07 630.678 295.341C633.5 289.498 636.887 289.611 634.5 292.819C633.5 294.163 635.447 294.315 636.5 293.66C637.851 292.819 640.5 292.482 640.5 293.66C640.5 294.837 637.097 297.528 635.577 297.528Z" fill="#8A6564"/>
<path fill-rule="evenodd" clip-rule="evenodd" d="M493.5 111C495 114.667 498.4 122.2 500 123L479 132C479.5 140.5 479.6 158.1 476 160.5C472.667 159.667 465.5 158.1 463.5 158.5C465 151.167 468.8 135.3 472 130.5C476 124.5 485.5 113.5 493.5 111ZM715 160.5L721.5 149H733.5L728.5 160.5H715ZM444.5 201.5L449 213.5L458.5 216L454.5 197.5L444.5 201.5ZM650.946 341.459C646.787 344.961 643.846 342.918 642.896 341.459C642.691 341.205 642.131 341.117 641.549 341.026C640.918 340.927 640.26 340.824 640 340.5C635.197 334.526 629.035 324.115 628.306 322.773C627.63 321.53 630.813 311.779 632.976 305.154C634.033 301.916 634.846 299.424 634.846 299.037C634.846 298.094 631.604 296.961 629.983 296.512C627.132 303.751 621.296 319.137 620.759 322.773C620.223 326.41 630.486 342.469 635.685 350.045L633.505 382.03C638.2 388.763 656.368 383.601 664.865 380.178C663.579 370.582 661.276 351.122 662.349 350.045C663.691 348.698 675 326.525 675 324C675 321.475 665.033 297.017 664.362 296.512C663.825 296.108 660.113 298.027 658.324 299.037C661.064 306.669 666.542 322.47 666.542 324.625C666.542 326.78 658.939 336.746 655.138 341.459H650.946ZM473.864 537.049C473.422 529.539 465.771 511.804 459.953 498.316C458.64 495.272 457.42 492.445 456.398 490C450.106 490 437.515 496.579 429.684 500.671L429.677 500.675C428.579 501.249 427.574 501.774 426.694 502.225C427.762 510.829 430.651 540.158 429.398 543.5C427.898 547.5 418.398 558.5 408.742 568.236L419.316 578.753C428.898 568 442.807 548.5 444.398 546C445.989 543.5 447.344 521.63 447.398 516C450.398 521 455.898 533 459.398 541.5C460.525 549.391 461.513 557.749 462.406 565.306C463.098 571.156 463.733 576.525 464.331 580.824L478.555 578.301C478.065 573.475 477.271 567.088 476.47 560.649C475.321 551.408 474.158 542.058 473.864 537.049ZM419 249L423.5 259.5L438 252.5L434.5 242.5L419 249ZM743.5 223.325C737.5 222.925 734.667 213.159 734 208.325C737.5 207.325 744.5 205.925 744.5 208.325C744.5 210.725 746.5 216.325 747.5 218.825C751.667 216.158 760.6 210.725 763 210.325C766 209.825 778.5 208.325 784.5 213.825C789.3 218.225 789.5 228.325 789 232.825L781.5 230.325C781.5 225.525 776.5 217.992 774 214.825C769.2 214.825 760.333 220.492 756.5 223.325C754.667 223.492 749.5 223.725 743.5 223.325ZM721.75 258.216L724 264.054L719 266L717 257L721.75 258.216ZM700.205 308C699.466 306.222 697.789 302.57 697 302.182L707.356 297.818C707.11 293.697 707.06 285.164 708.836 284C710.479 284.404 714.014 285.164 715 284.97C714.26 288.525 712.386 296.218 710.808 298.545C708.836 301.455 704.151 306.788 700.205 308ZM365 160.036L369 167.036C370.6 164.636 381 164.703 386 165.036C387.6 168.236 385.333 180.369 384 186.036C386 186.036 391.167 189.036 393.5 190.536C395.5 188.536 398.5 163.036 389 157.036C381.4 152.236 369.833 157.036 365 160.036ZM677 138.5L682.5 149L694 147L698.5 137L677 138.5ZM420 308.5V292.5L435 297.5L429.5 311.5L420 308.5ZM723.512 188.657L714.109 188.551L710.011 182.621L723.773 180.76L723.512 188.657ZM688.745 217.632L697.113 218.114L697.725 205.797L689.952 205.881L688.745 217.632ZM666.854 228.29L655.816 232.287L651.374 226.482L659.658 219.191L666.854 228.29Z" fill="#fd3d72"/>
<path d="M408.946 452.005C416.648 452.509 422.272 442.134 424.121 436.884C418.573 432.159 422.816 424.756 420.531 425.701C418.247 426.646 405.193 421.606 401.603 430.426C398.013 439.247 399.318 451.375 408.946 452.005Z" fill="#FFCB56"/>
<path fill-rule="evenodd" clip-rule="evenodd" d="M415.583 577.176C414.785 577.468 412.689 577.084 410.693 573.215C408.2 573.901 403.359 575.557 403.946 576.695L406.587 581.816C407.341 581.667 408.799 581.756 408.598 583.3C408.348 585.23 415.207 592.317 417.829 592.226C420.037 592.148 415.825 585.417 414.178 582.786C413.87 582.293 413.651 581.944 413.582 581.81C413.23 581.127 414.473 578.589 415.583 577.176ZM476.281 581.688C476.175 582.531 474.873 584.218 470.519 584.218C469.986 586.749 469.239 591.81 470.519 591.81H476.281C476.495 591.072 477.242 589.817 478.522 590.703C480.123 591.81 489.566 588.963 490.686 586.591C491.63 584.593 483.717 585.251 480.623 585.508C480.044 585.557 479.634 585.591 479.482 585.591C478.714 585.591 477.028 583.322 476.281 581.688Z" fill="#4B5361"/>
<path d="M400.413 474.149C403.991 466.938 420.754 454.082 428.689 448.556L437.155 436.645L448.018 443.405L442.427 454.35L457.443 488.635C454.504 500.225 435.451 502.8 426.292 502.639L415.898 478.998C412.916 481.412 408.88 484.933 407.602 484.933C406.324 484.933 402.277 477.744 400.413 474.149Z" fill="#EE7E79"/>
<path d="M419.549 431.481C421.09 431.481 423.401 434.573 424.363 436.119C425.848 438.199 424.363 443.317 424.363 446.037C424.363 448.212 425.754 449.609 426.45 450.035C430.172 458.225 422.438 458.46 418.105 457.553C418.105 456.487 417.977 453.842 417.463 451.795C416.821 449.236 415.859 447.796 413.773 447.796C411.686 447.796 408.959 445.557 408.317 444.117C407.803 442.965 408.959 442.358 409.6 442.198C410.242 442.304 411.398 441.974 410.884 439.798C410.242 437.079 412.489 436.119 414.735 436.119C416.982 436.119 417.624 431.481 419.549 431.481Z" fill="#EDC7C5"/>
<path d="M437.897 439.798C438.539 441.974 443.397 444.117 445.397 444.117C447.397 440.498 450.979 433.685 452.482 428.998C453.986 424.311 454.046 404.802 455.013 403.598C456.938 401.198 458.543 393.412 457.901 393.252C457.259 393.092 455.013 392.612 454.371 394.372C453.729 396.131 451.482 397.891 451.482 396.451C451.482 395.011 450.359 393.412 449.878 395.011C449.493 396.291 449.557 401.198 449.878 401.998C449.878 405.498 447.897 417.498 446.397 425.998C445.847 429.112 440.932 435.458 437.897 439.798Z" fill="#EDC7C5"/>
<path d="M408.317 481.498C407.675 479.323 403.877 476.161 402.058 475.308C400.397 476.998 397.397 482.498 394.897 487.998C391.982 500.225 391.904 513.855 390.665 515.398C388.74 517.798 387.135 526.013 387.777 526.173C388.419 526.333 390.665 526.813 391.307 525.053C391.949 523.294 394.196 521.534 394.196 522.974C394.196 524.414 395.319 526.013 395.8 524.414C396.185 523.134 396.121 517.798 395.8 516.998C396.335 515.558 400.658 491.998 402.058 489.998C405.558 484.998 405.897 483.998 408.317 481.498Z" fill="#EDC7C5"/>
</svg>