<svg class="illustration" width="1152" height="700" viewBox="0 0 1152 700" fill="none" xmlns="http://www.w3.org/2000/svg">
<path d="M614.081 201.925C494.196 96.574 418.863 124.051 351.194 168.385C234.164 245.055 272.173 435.648 405 442.5C531 449 577.517 498.287 679 545C780.484 591.713 912.5 419.5 850.5 325.5C788.5 231.5 735.825 308.91 614.081 201.925Z" fill="#ECE6E6"/>
<path d="M445.007 446.245C455.139 432.602 462.786 422.405 481.96 422.919C471.997 434.706 456.355 452.689 441.69 468.473C437.947 487.25 429.089 526.121 423.602 531.381C425.752 520.802 428.315 497.583 421.367 489.343C415.156 495.282 410.083 499.529 407.059 500.933C406.624 497.633 408.908 488.553 419.894 475.412C421.186 460.711 427.042 430.086 440.135 425.189L439.366 421.733C425.854 434.719 398.536 470.107 397.364 507.768C393.165 500.632 387.398 481.17 397.924 460.405C408.449 439.641 422.04 426.252 427.52 422.152C418.144 427.709 396.641 443.701 385.643 463.216C371.895 487.61 366.034 495.417 376.727 549.98C365.359 538.455 344.927 510.477 354.147 490.771C365.671 466.139 389.883 438.366 416.671 423.802C384.119 437.937 313.783 463.508 292.859 452.722C295.886 450.609 307.261 444.929 328.543 439.11C349.824 433.291 384.15 426.694 398.653 424.123C383.152 425.463 348.754 426.204 335.162 418.451C321.57 410.699 272.533 382.508 249.714 369.381C269.101 370.332 315.79 377.241 347.455 397.275C379.119 417.309 396.616 416.595 401.407 413.734C378.712 395.748 330.881 354.003 321.113 330.915C340.074 345.128 383.704 380.35 406.54 407.536C410.108 411.104 419.512 418.034 428.59 417.206C412.556 403.681 380.094 370.63 378.515 346.619C390.88 359.376 417.339 387.774 424.247 399.31C432.882 413.729 450.1 421.195 448.718 418.236C447.336 415.277 405.293 375.913 393.998 338.155C414.216 355.592 455.528 394.553 459.027 410.905C458.798 413.13 459.775 417.845 465.511 418.909C471.247 419.973 461.333 421.273 455.66 421.791C451.235 428.446 442.911 442.655 445.007 446.245Z" fill="#6B81AC"/>
<path d="M693.459 488.344C675.097 499.636 654.027 496.577 645.787 493.637C562.527 446.84 403.167 357.011 358.579 330.975L354.457 326.032C351.514 322.503 347.394 314.035 354.457 308.389C363.285 301.332 375.644 294.275 377.41 294.275C379.176 294.275 382.707 304.86 400.363 294.275C418.02 283.689 465.692 258.989 465.692 251.932C465.692 244.875 458.629 244.875 469.223 239.582C479.817 234.29 499.239 222.637 516.896 229.345C518.207 229.823 519.391 230.301 520.427 230.76C614.005 287.217 802.576 401.189 808.226 405.424C810.134 406.854 811.022 408.727 811.27 410.716C811.757 414.617 809.785 418.965 808.226 421.302C777.621 438.945 711.822 477.053 693.459 488.344Z" fill="white"/>
<path d="M645.787 493.637C551.62 440.709 360.107 332.736 347.394 324.267C340.679 319.794 338.267 315.452 337.918 311.917C336.957 317.798 336.447 330.619 342.097 334.853C347.747 339.087 546.912 454.235 645.787 511.28C655.204 513.044 677.922 514.455 693.46 505.987C708.997 497.518 779.976 456.587 813.523 437.18C815.553 431.255 817.943 417.666 811.271 410.716C811.757 414.617 809.785 418.965 808.226 421.302C777.622 438.945 711.822 477.053 693.46 488.344C675.097 499.636 654.027 496.577 645.787 493.637Z" fill="#3434ff"/>
<path d="M340.332 304.86C373.29 284.865 444.151 242.052 463.926 230.761C481.088 220.962 503.036 224.627 515.462 228.842C515.941 228.997 516.419 229.164 516.896 229.346C516.434 229.177 515.955 229.009 515.462 228.842C498.197 223.262 479.531 234.433 469.224 239.583C458.63 244.875 465.692 244.875 465.692 251.932C465.692 258.99 418.02 283.689 400.364 294.275C382.707 304.86 379.176 294.275 377.41 294.275C375.645 294.275 363.285 301.332 354.457 308.389C347.395 314.035 351.514 322.503 354.457 326.032L358.609 330.975L347.394 324.267C340.679 319.794 338.267 315.452 337.918 311.917C337.607 308.761 338.943 306.248 340.332 304.86Z" fill="#fd3d72"/>
<path d="M337.918 311.918C337.607 308.761 338.943 306.248 340.331 304.861C373.29 284.865 444.151 242.052 463.926 230.761C481.768 220.573 504.785 224.939 516.895 229.346M337.918 311.918C338.266 315.452 340.679 319.794 347.394 324.268C348.866 325.249 352.738 327.565 358.579 330.975M337.918 311.918C336.957 317.799 336.447 330.619 342.097 334.853C347.747 339.088 546.911 454.235 645.787 511.28C655.203 513.044 677.921 514.456 693.459 505.987C708.997 497.519 779.976 456.588 813.523 437.181C815.552 431.255 817.943 417.666 811.27 410.717M811.27 410.717C811.757 414.617 809.785 418.966 808.226 421.302C777.621 438.945 711.822 477.053 693.459 488.345C675.096 499.636 654.026 496.578 645.787 493.637C562.527 446.84 403.167 357.011 358.579 330.975M811.27 410.717C811.022 408.727 810.134 406.854 808.226 405.424C802.576 401.19 614.005 287.218 520.426 230.761C519.391 230.301 518.207 229.823 516.895 229.346M516.895 229.346C499.239 222.637 479.817 234.29 469.223 239.583C458.629 244.876 465.692 244.876 465.692 251.933C465.692 258.99 418.02 283.69 400.363 294.275C382.707 304.861 379.176 294.275 377.41 294.275C375.644 294.275 363.285 301.332 354.457 308.389C347.394 314.035 351.514 322.503 354.457 326.032L358.579 330.975M407.426 280.161L432.145 264.283M442.739 253.697L448.035 258.99M737.6 474.23L751.725 465.409" stroke="#4B5361"/>
<path d="M671.939 489.969L535.722 410.777L657.786 336.864L797.541 417.816L671.939 489.969Z" fill="#DAE4FA"/>
<path d="M462.85 318.745L448.75 311.61L531.587 261.67L545.687 268.804L462.85 318.745Z" stroke="#EE7E79"/>
<path d="M604.805 413.869L576.489 396.294L698.603 325.992L728.689 343.568L604.805 413.869Z" fill="#EE7E79"/>
<path d="M692.945 357.701L675.237 345.47L694.715 333.24L714.193 345.47L692.945 357.701Z" fill="white"/>
<path d="M694.921 350.453L684.297 346.969V341.742L693.15 345.226L719.711 305.156L723.253 306.898L694.921 350.453Z" fill="#FFCB56"/>
<path d="M594.608 396.803L671.94 350.453L673.698 352.236L596.366 398.585L594.608 396.803Z" stroke="white"/>
<path d="M603.396 403.933L680.728 357.584L682.486 359.366L605.154 405.716L603.396 403.933Z" stroke="white"/>
<path d="M754.631 428.727L738.841 418.127L756.385 407.528L772.174 418.127L754.631 428.727Z" stroke="#6B81AC"/>
<path d="M661.648 469.359L735.332 423.427L737.087 425.194L663.403 471.126L661.648 469.359Z" stroke="#6B81AC"/>
<path d="M670.42 478.192L668.666 476.425L742.35 430.494L744.104 432.26L670.42 478.192Z" stroke="#6B81AC"/>
<path d="M726.547 410.608L710.757 400.008L728.301 389.409L744.09 400.008L726.547 410.608Z" stroke="#6B81AC"/>
<path d="M633.564 451.24L707.248 405.308L709.003 407.075L635.319 453.007L633.564 451.24Z" stroke="#6B81AC"/>
<path d="M642.336 460.073L640.582 458.306L714.266 412.375L716.02 414.141L642.336 460.073Z" stroke="#6B81AC"/>
<path d="M694.838 389.771L679.048 379.172L696.592 368.572L712.381 379.172L694.838 389.771Z" stroke="#6B81AC"/>
<path d="M601.855 430.403L675.539 384.471L677.294 386.238L603.61 432.17L601.855 430.403Z" stroke="#6B81AC"/>
<path d="M610.627 439.236L608.873 437.47L682.557 391.538L684.311 393.304L610.627 439.236Z" stroke="#6B81AC"/>
<path d="M445.127 331.897C445.127 339.16 435.19 345.048 422.931 345.048C410.673 345.048 400.735 339.16 400.735 331.897C400.735 324.633 410.673 318.745 422.931 318.745C435.19 318.745 445.127 324.633 445.127 331.897Z" fill="#A4C3FE"/>
<path d="M445.127 331.897C445.127 339.16 435.19 345.048 422.931 345.048C410.673 345.048 400.735 339.16 400.735 331.897V340.864C403.335 344.251 411.413 350.907 422.931 350.429C434.449 349.95 441.528 345.646 445.127 340.864V331.897Z" fill="#A4C3FE"/>
<path d="M445.127 331.897C445.127 339.16 435.19 345.048 422.931 345.048C410.673 345.048 400.735 339.16 400.735 331.897C400.735 324.633 410.673 318.745 422.931 318.745C435.19 318.745 445.127 324.633 445.127 331.897Z" fill="#FFCB56"/>
<path d="M507.241 343.205L493.142 336.071L575.978 286.13L590.078 293.265L507.241 343.205Z" stroke="#EE7E79"/>
<path d="M489.518 356.357C489.518 363.621 479.58 369.509 467.322 369.509C455.063 369.509 445.126 363.621 445.126 356.357C445.126 349.094 455.063 343.205 467.322 343.205C479.58 343.205 489.518 349.094 489.518 356.357Z" fill="#A4C3FE"/>
<path d="M489.518 356.357C489.518 363.621 479.58 369.509 467.322 369.509C455.063 369.509 445.126 363.621 445.126 356.357V365.324C447.725 368.712 455.804 375.367 467.322 374.889C478.84 374.411 485.918 370.107 489.518 365.324V356.357Z" fill="#A4C3FE"/>
<path d="M489.518 356.357C489.518 363.621 479.58 369.509 467.322 369.509C455.063 369.509 445.126 363.621 445.126 356.357C445.126 349.094 455.063 343.205 467.322 343.205C479.58 343.205 489.518 349.094 489.518 356.357Z" fill="#FFCB56"/>
<path d="M551.633 372.196L537.533 365.061L620.37 315.121L634.47 322.255L551.633 372.196Z" stroke="#EE7E79"/>
<path d="M533.909 385.348C533.909 392.611 523.972 398.499 511.713 398.499C499.455 398.499 489.518 392.611 489.518 385.348C489.518 378.084 499.455 372.196 511.713 372.196C523.972 372.196 533.909 378.084 533.909 385.348Z" fill="#A4C3FE"/>
<path d="M533.909 385.348C533.909 392.611 523.972 398.499 511.713 398.499C499.455 398.499 489.518 392.611 489.518 385.348V394.315C492.117 397.702 500.196 404.358 511.713 403.88C523.231 403.401 530.31 399.097 533.909 394.315V385.348Z" fill="#A4C3FE"/>
<path d="M533.909 385.348C533.909 392.611 523.972 398.499 511.713 398.499C499.455 398.499 489.518 392.611 489.518 385.348C489.518 378.084 499.455 372.196 511.713 372.196C523.972 372.196 533.909 378.084 533.909 385.348Z" fill="#FFCB56"/>
</svg>