<svg class="illustration" width="1155" height="700" viewBox="0 0 1155 700" fill="none" xmlns="http://www.w3.org/2000/svg">
<path fill-rule="evenodd" clip-rule="evenodd" d="M337.945 509.973C337.945 521.264 347.098 530.417 358.389 530.417H348.219C336.929 530.417 327.775 521.264 327.775 509.973L327.775 187.073C327.775 175.782 336.929 166.629 348.219 166.629H358.386C347.097 166.63 337.945 175.783 337.945 187.073L337.945 509.973ZM358.45 166.629C347.159 166.629 338.006 175.782 338.006 187.073V509.973C338.006 521.264 347.159 530.417 358.45 530.417H822.326C833.616 530.417 842.77 521.264 842.77 509.973V187.073C842.77 175.782 833.616 166.629 822.326 166.629H358.45Z" fill="#5fcff8"/>
<path d="M256.549 588.955H424.72" stroke="#8BADFF" stroke-width="0.924359"/>
<path d="M256.549 582.768H424.72" stroke="#8BADFF" stroke-width="0.924359"/>
<path d="M256.549 576.58H424.72" stroke="#8BADFF" stroke-width="0.924359"/>
<circle cx="431.931" cy="145.54" r="27.3712" stroke="#00257E" stroke-width="0.924359" stroke-dasharray="2.03 2.03"/>
<circle cx="336.165" cy="582.769" r="10.9884" stroke="#00257E" stroke-width="0.924359" stroke-dasharray="2.03 2.03"/>
<rect x="315.07" y="488.966" width="550.578" height="62.9484" rx="18.2782" stroke="#185BFF" stroke-width="0.924359"/>
<path fill-rule="evenodd" clip-rule="evenodd" d="M858.824 527.428C856.957 529.295 856.957 532.322 858.824 534.19L860.099 535.464L860.093 535.471L866.855 542.232L866.861 542.226L866.867 542.232L873.629 535.471L873.623 535.464L874.897 534.19C876.765 532.322 876.765 529.295 874.897 527.428C873.03 525.561 870.003 525.561 868.136 527.428L866.861 528.702L865.586 527.428C863.719 525.561 860.691 525.561 858.824 527.428Z" fill="#185BFF"/>
<path d="M866.154 462.391C862.609 466.53 856.638 462.711 856.638 462.711C856.638 462.711 857.605 460.373 859.467 457.389C860.956 455.002 868.203 455.279 871.754 456.502C871.364 456.741 869.698 458.253 866.154 462.391Z" fill="#5AE8AD"/>
<circle cx="826.555" cy="550.281" r="10.3056" stroke="#E9E9E9" stroke-width="0.924359"/>
<circle cx="826.555" cy="550.282" r="8.04939" fill="#E9E9E9" fill-opacity="0.4"/>
<circle cx="541.042" cy="552.378" r="3.93653" fill="#185BFF"/>
<rect x="220.871" y="354.174" width="1.64523" height="11.3913" fill="#185BFF"/>
<rect x="227.391" y="359.047" width="1.64523" height="11.3913" transform="rotate(90 227.391 359.047)" fill="#185BFF"/>
<path d="M918.672 540.229V545.447C918.672 560.252 906.67 572.254 891.865 572.254H792.653" stroke="#8BADFF" stroke-width="0.924359"/>
<path d="M693.625 601.632L688.922 597.01C684.385 592.55 677.084 592.599 672.586 597.097V597.097C668.079 601.604 660.755 601.621 656.249 597.115V597.115C651.742 592.608 644.436 592.608 639.929 597.115V597.115C635.423 601.621 628.116 601.621 623.61 597.115V597.115C619.104 592.608 611.797 592.608 607.291 597.115V597.115C602.784 601.621 595.478 601.621 590.971 597.115V597.115C586.465 592.608 579.158 592.608 574.652 597.115V597.115C570.145 601.621 562.839 601.621 558.333 597.115V597.115C553.826 592.608 546.52 592.608 542.013 597.115V597.115C537.507 601.621 530.2 601.621 525.694 597.115V597.115C521.187 592.608 513.881 592.608 509.374 597.115L509.165 597.325C504.71 601.78 497.545 601.964 492.867 597.743L487.089 592.531" stroke="#A4D3FF" stroke-width="0.851837"/>
<path d="M747.324 268.62L751.862 264.023C755.825 260.007 762.299 259.986 766.288 263.975L768.181 265.868C772.152 269.839 778.59 269.839 782.56 265.868L784.5 263.928C788.471 259.957 794.909 259.957 798.88 263.928L800.819 265.868C804.79 269.839 811.228 269.839 815.199 265.868L815.618 265.449C815.985 265.082 816.323 264.688 816.63 264.269L818.506 261.709" stroke="#A4D3FF" stroke-width="0.924359" stroke-linecap="round"/>
<path d="M458.211 430.642L462.748 426.044C466.711 422.029 473.186 422.008 477.175 425.997L479.068 427.889C483.038 431.86 489.476 431.86 493.447 427.889L495.387 425.95C499.358 421.979 505.796 421.979 509.767 425.95L511.706 427.889C515.677 431.86 522.115 431.86 526.086 427.889L526.505 427.471C526.871 427.104 527.21 426.709 527.516 426.291L529.393 423.73" stroke="#A4D3FF" stroke-width="0.924359" stroke-linecap="round"/>
<path d="M465.976 286.018L470.573 290.555C474.588 294.518 474.61 300.992 470.62 304.982L468.728 306.874C464.757 310.845 464.757 317.283 468.728 321.254L470.668 323.194C474.638 327.164 474.638 333.602 470.668 337.573L468.728 339.513C464.757 343.484 464.757 349.922 468.728 353.893L469.147 354.311C469.513 354.678 469.908 355.016 470.326 355.323L472.887 357.199" stroke="#0035B7" stroke-width="0.924359" stroke-linecap="round"/>
<path d="M814.482 462.723L819.079 467.26C823.094 471.223 823.115 477.698 819.126 481.687L817.234 483.579C813.263 487.55 813.263 493.988 817.234 497.959L819.173 499.899C823.144 503.869 823.144 510.307 819.173 514.278L817.234 516.218C813.263 520.189 813.263 526.627 817.234 530.598L817.652 531.016C818.019 531.383 818.414 531.721 818.832 532.028L821.393 533.904" stroke="#0035B7" stroke-width="0.924359" stroke-linecap="round"/>
<circle cx="792.655" cy="571.839" r="3.93653" fill="#185BFF"/>
<circle cx="521.343" cy="126.802" r="3.93653" fill="#185BFF"/>
<path d="M787.779 104.368L786.039 102.522C781.642 97.8567 774.26 97.7475 769.727 102.28V102.28C765.287 106.72 758.029 106.66 753.589 102.221V102.221C749.083 97.714 741.715 97.6532 737.209 102.16V102.16C732.702 106.666 725.396 106.666 720.889 102.16V102.16C716.383 97.6532 709.077 97.6532 704.57 102.16V102.16C700.064 106.666 692.757 106.666 688.251 102.16V102.16C683.744 97.6532 676.438 97.6532 671.931 102.16V102.16C667.425 106.666 660.118 106.666 655.612 102.16V102.16C651.106 97.6532 643.799 97.6532 639.293 102.16V102.16C634.786 106.666 627.48 106.666 622.973 102.16V102.16C618.467 97.6532 611.16 97.6532 606.654 102.16L606.22 102.594C601.826 106.987 594.827 107.36 589.992 103.458L589.399 102.979" stroke="#B5DBFF" stroke-width="0.851837"/>
<path d="M594.647 104.355C594.647 106.529 592.884 108.291 590.71 108.291C588.536 108.291 586.773 106.529 586.773 104.355C586.773 102.18 588.536 100.418 590.71 100.418C592.884 100.418 594.647 102.18 594.647 104.355Z" fill="#B5DBFF"/>
<circle cx="787.778" cy="104.731" r="3.93653" fill="#B5DBFF"/>
<rect x="367.867" y="120.283" width="1.64523" height="11.3913" fill="#185BFF"/>
<rect x="374.385" y="125.156" width="1.64523" height="11.3913" transform="rotate(90 374.385 125.156)" fill="#185BFF"/>
<rect x="930.643" y="305.738" width="1.64523" height="11.3913" fill="#185BFF"/>
<rect x="937.16" y="310.611" width="1.64523" height="11.3913" transform="rotate(90 937.16 310.611)" fill="#185BFF"/>
<circle cx="445.266" cy="473.204" r="20.0855" stroke="#00257E" stroke-opacity="0.2" stroke-width="0.924359"/>
<path d="M491.518 166.629H605.879V316.049C605.879 319.622 602.982 322.519 599.408 322.519H497.988C494.415 322.519 491.518 319.622 491.518 316.049V166.629Z" fill="white" fill-opacity="0.06"/>
<circle cx="445.267" cy="473.204" r="14.8981" stroke="#00257E" stroke-opacity="0.2" stroke-width="0.924359"/>
<path d="M446.301 166.629L446.301 509.973C446.301 521.264 437.148 530.417 425.857 530.417L358.389 530.417C347.098 530.417 337.944 521.264 337.944 509.973L337.944 187.073C337.944 175.782 347.098 166.629 358.389 166.629L446.301 166.629Z" fill="black" fill-opacity="0.23"/>
<path fill-rule="evenodd" clip-rule="evenodd" d="M358.389 530.417C347.098 530.417 337.945 521.264 337.945 509.973L337.945 187.073C337.945 175.783 347.097 166.63 358.386 166.629L348.219 166.629C336.929 166.629 327.775 175.782 327.775 187.073L327.775 509.973C327.775 521.264 336.929 530.417 348.219 530.417H358.389Z" fill="black" fill-opacity="0.51"/>
<rect x="620.338" y="247.666" width="177.998" height="265.574" rx="6.47051" fill="white" fill-opacity="0.06"/>
<rect x="348.516" y="358.789" width="87.2127" height="153.675" rx="6.47051" fill="white" fill-opacity="0.28"/>
<ellipse cx="391.618" cy="493.159" rx="24.7763" ry="1.79343" fill="#001956" fill-opacity="0.5"/>
<path d="M373.195 487.187C368.183 487.187 364.105 482.754 364.105 477.304V386.182C364.105 380.732 368.183 376.299 373.195 376.299H411.049C416.061 376.299 420.138 380.732 420.138 386.182V477.304C420.138 482.754 416.061 487.187 411.049 487.187H373.195Z" fill="#00257E"/>
<path d="M411.048 484.581H373.194C369.568 484.581 366.629 481.385 366.629 477.443V386.32C366.629 382.378 369.568 379.182 373.194 379.182H411.048C414.674 379.182 417.613 382.378 417.613 386.32V477.443C417.613 481.385 414.674 484.581 411.048 484.581Z" fill="#E6E6E6"/>
<path d="M411.807 484.581H372.435C369.902 484.581 367.848 482.348 367.848 479.593V384.17C367.848 381.415 369.902 379.182 372.435 379.182H411.807C414.34 379.182 416.394 381.415 416.394 384.17V479.593C416.394 482.348 414.34 484.581 411.807 484.581Z" fill="white"/>
<path d="M397.533 481.279H386.709C386.347 481.279 386.053 480.96 386.053 480.565C386.053 480.171 386.347 479.852 386.709 479.852H397.533C397.895 479.852 398.189 480.171 398.189 480.565C398.189 480.96 397.895 481.279 397.533 481.279Z" fill="#E6E6E6"/>
<path d="M404.663 387.009H379.582C377.871 387.009 376.484 385.501 376.484 383.641V379.182H407.76V383.641C407.76 385.501 406.374 387.009 404.663 387.009Z" fill="#0035B7"/>
<path d="M399.447 383.589C399.867 383.589 400.208 383.218 400.208 382.761C400.208 382.304 399.867 381.934 399.447 381.934C399.026 381.934 398.686 382.304 398.686 382.761C398.686 383.218 399.026 383.589 399.447 383.589Z" fill="#FFF170"/>
<path d="M403.894 383.589C404.314 383.589 404.655 383.218 404.655 382.761C404.655 382.304 404.314 381.934 403.894 381.934C403.474 381.934 403.133 382.304 403.133 382.761C403.133 383.218 403.474 383.589 403.894 383.589Z" fill="#FFF170"/>
<rect x="386.607" y="391.672" width="27.4408" height="13.9228" rx="6.07161" fill="#0035B7"/>
<rect x="386.607" y="421.275" width="27.4408" height="13.9228" rx="6.07161" fill="#0035B7"/>
<rect x="370.748" y="409.623" width="27.4408" height="7.62384" rx="3.81192" fill="#185BFF"/>
<rect x="370.748" y="439.229" width="27.4408" height="13.9228" rx="6.07161" fill="#185BFF"/>
<rect x="386.607" y="458.67" width="27.4408" height="7.62384" rx="3.81192" fill="#0035B7"/>
<rect x="348.516" y="187.102" width="87.2127" height="153.675" rx="6.47051" fill="white" fill-opacity="0.28"/>
<path d="M373.195 308.877C368.183 308.877 364.105 304.954 364.105 300.131V219.492C364.105 214.67 368.183 210.746 373.195 210.746H411.049C416.061 210.746 420.138 214.67 420.138 219.492V300.131C420.138 304.954 416.061 308.877 411.049 308.877H373.195Z" fill="#00257E"/>
<path d="M411.05 306.571H373.196C369.57 306.571 366.631 303.742 366.631 300.253V219.614C366.631 216.125 369.57 213.297 373.196 213.297H411.05C414.676 213.297 417.616 216.125 417.616 219.614V300.253C417.616 303.742 414.676 306.571 411.05 306.571Z" fill="#E6E6E6"/>
<path d="M411.809 306.571H372.437C369.904 306.571 367.85 304.594 367.85 302.156V217.711C367.85 215.273 369.904 213.297 372.437 213.297H411.809C414.342 213.297 416.396 215.273 416.396 217.711V302.156C416.396 304.594 414.342 306.571 411.809 306.571Z" fill="white"/>
<path d="M397.535 303.648H386.711C386.349 303.648 386.055 303.365 386.055 303.016C386.055 302.668 386.349 302.385 386.711 302.385H397.535C397.897 302.385 398.191 302.668 398.191 303.016C398.191 303.365 397.897 303.648 397.535 303.648Z" fill="#E6E6E6"/>
<path d="M404.663 220.223H379.582C377.871 220.223 376.484 218.889 376.484 217.243V217.243C376.484 215.064 378.251 213.297 380.431 213.297H403.814C405.994 213.297 407.761 215.064 407.761 217.243V217.243C407.761 218.889 406.374 220.223 404.663 220.223Z" fill="#F2F2F2"/>
<path d="M399.447 217.197C399.867 217.197 400.208 216.869 400.208 216.465C400.208 216.06 399.867 215.732 399.447 215.732C399.026 215.732 398.686 216.06 398.686 216.465C398.686 216.869 399.026 217.197 399.447 217.197Z" fill="#185BFF"/>
<path d="M403.894 217.197C404.314 217.197 404.655 216.869 404.655 216.465C404.655 216.06 404.314 215.732 403.894 215.732C403.474 215.732 403.133 216.06 403.133 216.465C403.133 216.869 403.474 217.197 403.894 217.197Z" fill="#185BFF"/>
<path d="M376.119 262.389H373.714C372.604 262.389 371.705 261.524 371.705 260.457V258.142C371.705 257.074 372.604 256.209 373.714 256.209H376.119C377.229 256.209 378.128 257.074 378.128 258.142V260.457C378.128 261.524 377.229 262.389 376.119 262.389Z" fill="#185BFF"/>
<path d="M410.532 262.389H408.126C407.016 262.389 406.117 261.524 406.117 260.457V258.142C406.117 257.074 407.016 256.209 408.126 256.209H410.532C411.641 256.209 412.54 257.074 412.54 258.142V260.457C412.54 261.524 411.641 262.389 410.532 262.389Z" fill="#185BFF"/>
<path d="M402.09 262.389H399.684C398.575 262.389 397.676 261.524 397.676 260.457V258.142C397.676 257.074 398.575 256.209 399.684 256.209H402.09C403.199 256.209 404.099 257.074 404.099 258.142V260.457C404.099 261.524 403.199 262.389 402.09 262.389Z" fill="#185BFF"/>
<path d="M409.764 254.267H374.481C372.948 254.267 371.705 253.071 371.705 251.595V233.933C371.705 232.458 372.948 231.262 374.481 231.262H409.764C411.297 231.262 412.54 232.458 412.54 233.933V251.595C412.54 253.071 411.297 254.267 409.764 254.267Z" fill="#185BFF"/>
<path d="M409.764 288.999H374.481C372.948 288.999 371.705 287.755 371.705 286.22V267.849C371.705 266.314 372.948 265.07 374.481 265.07H409.764C411.297 265.07 412.54 266.314 412.54 267.849V286.22C412.54 287.755 411.297 288.999 409.764 288.999Z" fill="#185BFF"/>
<ellipse cx="392.123" cy="315.224" rx="26.3302" ry="1.90591" fill="#001956" fill-opacity="0.5"/>
<path d="M425.27 530.17C425.014 530.17 424.807 530.377 424.807 530.633C424.807 530.888 425.014 531.095 425.27 531.095V530.17ZM446.397 166.611V510.186H447.321V166.611H446.397ZM426.412 530.17H425.27V531.095H426.412V530.17ZM446.397 510.186C446.397 521.223 437.449 530.17 426.412 530.17V531.095C437.96 531.095 447.321 521.733 447.321 510.186H446.397Z" fill="white"/>
<rect x="501.396" y="313.697" width="10.2774" height="1.34074" fill="#0035B7"/>
<rect x="501.164" y="315.037" width="4.61521" height="1.34074" transform="rotate(-90 501.164 315.037)" fill="#0035B7"/>
<rect x="510.564" y="315.037" width="4.61521" height="1.34074" transform="rotate(-90 510.564 315.037)" fill="#0035B7"/>
<path d="M504.452 307.415C504.197 307.16 503.784 307.16 503.529 307.415C503.274 307.67 503.274 308.084 503.529 308.339L504.452 307.415ZM506.536 310.422L506.074 310.884L506.536 311.346L506.997 310.884L506.536 310.422ZM509.543 308.339C509.798 308.084 509.798 307.67 509.543 307.415C509.288 307.16 508.874 307.16 508.619 307.415L509.543 308.339ZM503.529 308.339L506.074 310.884L506.997 309.961L504.452 307.415L503.529 308.339ZM506.997 310.884L509.543 308.339L508.619 307.415L506.074 309.961L506.997 310.884Z" fill="#0035B7"/>
<path d="M506.557 310.205V305.012" stroke="#0035B7" stroke-width="1.30583" stroke-linecap="round"/>
<path d="M620.338 173.099C620.338 169.526 623.235 166.629 626.808 166.629H791.866C795.439 166.629 798.336 169.526 798.336 173.099V228.5C798.336 232.074 795.439 234.971 791.866 234.971H626.808C623.235 234.971 620.338 232.074 620.338 228.5L620.338 173.099Z" fill="white" fill-opacity="0.06"/>
<rect x="629.391" y="504.504" width="10.2774" height="1.34074" fill="#0035B7"/>
<rect x="629.158" y="505.844" width="4.61521" height="1.34074" transform="rotate(-90 629.158 505.844)" fill="#0035B7"/>
<rect x="638.559" y="505.844" width="4.61521" height="1.34074" transform="rotate(-90 638.559 505.844)" fill="#0035B7"/>
<path d="M632.446 498.222C632.191 497.967 631.778 497.967 631.523 498.222C631.268 498.477 631.268 498.89 631.523 499.145L632.446 498.222ZM634.53 501.229L634.068 501.691L634.53 502.152L634.991 501.691L634.53 501.229ZM637.537 499.145C637.792 498.89 637.792 498.477 637.537 498.222C637.282 497.967 636.868 497.967 636.613 498.222L637.537 499.145ZM631.523 499.145L634.068 501.691L634.991 500.767L632.446 498.222L631.523 499.145ZM634.991 501.691L637.537 499.145L636.613 498.222L634.068 500.767L634.991 501.691Z" fill="#0035B7"/>
<path d="M634.553 501.012V495.818" stroke="#0035B7" stroke-width="1.30583" stroke-linecap="round"/>
<rect x="629.391" y="226.416" width="10.2774" height="1.34074" fill="#0035B7"/>
<rect x="629.158" y="227.756" width="4.61521" height="1.34074" transform="rotate(-90 629.158 227.756)" fill="#0035B7"/>
<rect x="638.559" y="227.756" width="4.61521" height="1.34074" transform="rotate(-90 638.559 227.756)" fill="#0035B7"/>
<path d="M632.446 220.134C632.191 219.879 631.778 219.879 631.523 220.134C631.268 220.389 631.268 220.802 631.523 221.057L632.446 220.134ZM634.53 223.141L634.068 223.603L634.53 224.064L634.991 223.603L634.53 223.141ZM637.537 221.057C637.792 220.802 637.792 220.389 637.537 220.134C637.282 219.879 636.868 219.879 636.613 220.134L637.537 221.057ZM631.523 221.057L634.068 223.603L634.991 222.679L632.446 220.134L631.523 221.057ZM634.991 223.603L637.537 221.057L636.613 220.134L634.068 222.679L634.991 223.603Z" fill="#0035B7"/>
<path d="M634.553 222.924V217.73" stroke="#0035B7" stroke-width="1.30583" stroke-linecap="round"/>
<rect x="354.947" y="503.729" width="10.2774" height="1.34074" fill="#00257E"/>
<rect x="354.715" y="505.068" width="4.61521" height="1.34074" transform="rotate(-90 354.715 505.068)" fill="#00257E"/>
<rect x="364.115" y="505.068" width="4.61521" height="1.34074" transform="rotate(-90 364.115 505.068)" fill="#00257E"/>
<path d="M358.003 497.447C357.748 497.192 357.334 497.192 357.079 497.447C356.824 497.702 356.824 498.115 357.079 498.37L358.003 497.447ZM360.086 500.454L359.625 500.915L360.086 501.377L360.548 500.915L360.086 500.454ZM363.093 498.37C363.348 498.115 363.348 497.702 363.093 497.447C362.838 497.192 362.425 497.192 362.17 497.447L363.093 498.37ZM357.079 498.37L359.625 500.915L360.548 499.992L358.003 497.447L357.079 498.37ZM360.548 500.915L363.093 498.37L362.17 497.447L359.625 499.992L360.548 500.915Z" fill="#00257E"/>
<path d="M360.107 500.237V495.043" stroke="#00257E" stroke-width="1.30583" stroke-linecap="round"/>
<rect x="354.947" y="331.953" width="10.2774" height="1.34074" fill="#00257E"/>
<rect x="354.715" y="333.293" width="4.61521" height="1.34074" transform="rotate(-90 354.715 333.293)" fill="#00257E"/>
<rect x="364.115" y="333.293" width="4.61521" height="1.34074" transform="rotate(-90 364.115 333.293)" fill="#00257E"/>
<path d="M358.003 325.671C357.748 325.416 357.334 325.416 357.079 325.671C356.824 325.926 356.824 326.34 357.079 326.594L358.003 325.671ZM360.086 328.678L359.625 329.14L360.086 329.602L360.548 329.14L360.086 328.678ZM363.093 326.594C363.348 326.34 363.348 325.926 363.093 325.671C362.838 325.416 362.425 325.416 362.17 325.671L363.093 326.594ZM357.079 326.594L359.625 329.14L360.548 328.216L358.003 325.671L357.079 326.594ZM360.548 329.14L363.093 326.594L362.17 325.671L359.625 328.216L360.548 329.14Z" fill="#00257E"/>
<path d="M360.109 328.461V323.268" stroke="#00257E" stroke-width="1.30583" stroke-linecap="round"/>
<rect x="309.134" y="154.931" width="557.616" height="48.7941" rx="8.78141" fill="white" fill-opacity="0.7" stroke="#0035B7" stroke-width="0.924359"/>
<rect x="806.205" y="168.906" width="21.2895" height="3.99583" rx="1.84872" fill="#0035B7"/>
<rect x="806.205" y="175.613" width="21.2895" height="3.99583" rx="1.84872" fill="#0035B7"/>
<rect x="806.205" y="182.318" width="21.2895" height="3.99583" rx="1.84872" fill="#0035B7"/>
<circle cx="595.158" cy="174.361" r="1.81588" fill="#0035B7" fill-opacity="0.3"/>
<circle cx="587.906" cy="174.361" r="1.81588" fill="#0035B7" fill-opacity="0.3"/>
<circle cx="580.654" cy="174.361" r="1.81588" fill="#0035B7" fill-opacity="0.3"/>
<circle cx="469.428" cy="258.894" r="1.81588" transform="rotate(90 469.428 258.894)" fill="#0035B7" fill-opacity="0.3"/>
<circle cx="469.428" cy="251.642" r="1.81588" transform="rotate(90 469.428 251.642)" fill="#0035B7" fill-opacity="0.3"/>
<circle cx="469.428" cy="244.39" r="1.81588" transform="rotate(90 469.428 244.39)" fill="#0035B7" fill-opacity="0.3"/>
<rect x="489.924" y="339.992" width="114.361" height="172.47" rx="6.47051" fill="white" fill-opacity="0.06"/>
<ellipse cx="547.18" cy="493.751" rx="31.5607" ry="2.01292" fill="#0035B7" fill-opacity="0.5"/>
<rect x="574.176" y="387.242" width="5.55451" height="15.7805" rx="1.54043" fill="white"/>
<rect x="514.629" y="406.719" width="5.55451" height="15.7805" rx="1.54043" fill="white"/>
<rect x="514.629" y="387.242" width="5.55451" height="15.7805" rx="1.54043" fill="white"/>
<rect x="501.396" y="503.729" width="10.2774" height="1.34074" fill="#0035B7"/>
<rect x="501.164" y="505.068" width="4.61521" height="1.34074" transform="rotate(-90 501.164 505.068)" fill="#0035B7"/>
<rect x="510.564" y="505.068" width="4.61521" height="1.34074" transform="rotate(-90 510.564 505.068)" fill="#0035B7"/>
<path d="M504.452 497.447C504.197 497.192 503.784 497.192 503.529 497.447C503.274 497.702 503.274 498.115 503.529 498.37L504.452 497.447ZM506.536 500.454L506.074 500.915L506.536 501.377L506.997 500.915L506.536 500.454ZM509.543 498.37C509.798 498.115 509.798 497.702 509.543 497.447C509.288 497.192 508.874 497.192 508.619 497.447L509.543 498.37ZM503.529 498.37L506.074 500.915L506.997 499.992L504.452 497.447L503.529 498.37ZM506.997 500.915L509.543 498.37L508.619 497.447L506.074 499.992L506.997 500.915Z" fill="#0035B7"/>
<path d="M506.557 500.237V495.043" stroke="#0035B7" stroke-width="1.30583" stroke-linecap="round"/>
<circle cx="595.158" cy="350.56" r="1.81588" fill="#0035B7" fill-opacity="0.3"/>
<circle cx="587.904" cy="350.56" r="1.81588" fill="#0035B7" fill-opacity="0.3"/>
<circle cx="580.652" cy="350.56" r="1.81588" fill="#0035B7" fill-opacity="0.3"/>
<circle cx="787.146" cy="257.078" r="1.81588" fill="#0035B7" fill-opacity="0.3"/>
<circle cx="779.892" cy="257.078" r="1.81588" fill="#0035B7" fill-opacity="0.3"/>
<circle cx="772.64" cy="257.08" r="1.81588" fill="#0035B7" fill-opacity="0.3"/>
<path d="M766.88 482.593C766.88 483.526 741.118 484.282 709.338 484.282C677.559 484.282 651.797 483.526 651.797 482.593C651.797 481.66 677.559 480.904 709.338 480.904C741.118 480.904 766.88 481.66 766.88 482.593Z" fill="#0035B7" fill-opacity="0.5"/>
<rect x="663.357" y="290.004" width="6.57952" height="18.6925" rx="2.14424" transform="rotate(-90 663.357 290.004)" fill="#FBFAFF"/>
<rect x="774.07" y="284.627" width="185.68" height="130.424" rx="17.154" transform="rotate(90 774.07 284.627)" fill="#0035B7"/>
<rect x="766.555" y="289.242" width="176.449" height="115.395" rx="16.2876" transform="rotate(90 766.555 289.242)" fill="white"/>
<rect opacity="0.4" x="769.057" y="287.666" width="179.601" height="120.398" rx="15.9694" transform="rotate(90 769.057 287.666)" stroke="#8A8A8A" stroke-width="0.636423"/>
<path d="M704.486 327.36C704.486 325.647 705.875 324.258 707.588 324.258H753.356C755.07 324.258 756.459 325.647 756.459 327.36V380.321C756.459 382.034 755.07 383.423 753.356 383.423H707.588C705.875 383.423 704.486 382.034 704.486 380.321V327.36Z" fill="#185BFF"/>
<path d="M663.133 395.619C663.133 393.906 664.522 392.517 666.235 392.517H753.356C755.07 392.517 756.459 393.906 756.459 395.619V448.58C756.459 450.293 755.07 451.682 753.356 451.682H666.235C664.522 451.682 663.133 450.293 663.133 448.58V395.619Z" fill="#185BFF"/>
<rect x="662.215" y="299.131" width="94.2434" height="9.87095" rx="3.1024" fill="#185BFF"/>
<rect x="670.846" y="401.26" width="77.903" height="3.52512" fill="white" fill-opacity="0.4"/>
<rect x="670.846" y="413.215" width="36.7972" height="3.52512" fill="white" fill-opacity="0.4"/>
<rect x="670.846" y="420.107" width="36.7972" height="3.52512" fill="white" fill-opacity="0.4"/>
<rect x="670.846" y="427" width="36.7972" height="3.52512" fill="white" fill-opacity="0.4"/>
<rect x="670.846" y="433.895" width="36.7972" height="3.52512" fill="white" fill-opacity="0.4"/>
<rect x="711.951" y="334.129" width="36.7972" height="3.52512" fill="white" fill-opacity="0.4"/>
<rect x="711.951" y="346.084" width="36.7972" height="3.52512" fill="white" fill-opacity="0.4"/>
<rect x="711.951" y="352.977" width="36.7972" height="3.52512" fill="white" fill-opacity="0.4"/>
<rect x="711.951" y="359.869" width="36.7972" height="3.52512" fill="white" fill-opacity="0.4"/>
<rect x="711.951" y="366.762" width="36.7972" height="3.52512" fill="white" fill-opacity="0.4"/>
<rect x="711.951" y="413.215" width="36.7972" height="24.204" fill="white" fill-opacity="0.4"/>
<path d="M510.32 217.241C510.32 215.507 511.726 214.102 513.46 214.102H583.936C585.67 214.102 587.076 215.507 587.076 217.241V269.193H510.32V217.241Z" fill="#0035B7"/>
<path d="M512.803 266.902H584.594V269.193H512.803V266.902Z" fill="#2061FF"/>
<path d="M544.295 266.902L538 252.034L534.795 244.463L530.115 257.679L512.906 222.299V266.902H544.295Z" fill="#0035B7"/>
<path fill-rule="evenodd" clip-rule="evenodd" d="M584.631 245.702L574.306 231.385L560.727 244.99L563.843 252.448L556.753 266.902H584.631V245.702Z" fill="#0035B7"/>
<path d="M555.445 232.348L550.087 248.952L544.295 266.902H556.753L560.727 244.99L555.445 232.348Z" fill="#0035B7"/>
<path d="M556.753 266.902L563.843 252.448L560.727 244.99L556.753 266.902Z" fill="#0035B7"/>
<path d="M544.295 266.902L550.087 248.952L548.562 245.702L544.295 254.513L540.164 248.593L538 252.034L544.295 266.902Z" fill="#0035B7"/>
<path d="M512.803 218.414H584.594V221.994H512.803V218.414Z" fill="black" fill-opacity="0.17"/>
<rect x="516.979" y="259.732" width="63.4384" height="5.66849" rx="2.0931" fill="#7099FF" fill-opacity="0.9"/>
<path d="M500.695 271.212C499.624 270.785 499.929 269.193 501.082 269.193H596.096C597.258 269.193 597.555 270.803 596.47 271.217L586.632 274.979C586.513 275.025 586.386 275.048 586.259 275.048H510.516C510.383 275.048 510.251 275.023 510.128 274.974L500.695 271.212Z" fill="#0035B7"/>
<circle cx="523.876" cy="262.568" r="1.61842" fill="#0035B7" fill-opacity="0.2"/>
<circle cx="529.392" cy="262.568" r="1.61842" fill="#0035B7" fill-opacity="0.2"/>
<circle cx="534.907" cy="262.568" r="1.61842" fill="#0035B7" fill-opacity="0.2"/>
<circle cx="540.423" cy="262.568" r="1.61842" fill="#0035B7" fill-opacity="0.2"/>
<circle cx="545.939" cy="262.568" r="1.61842" fill="#0035B7" fill-opacity="0.2"/>
<circle cx="551.454" cy="262.568" r="1.61842" fill="#0035B7" fill-opacity="0.2"/>
<circle cx="556.972" cy="262.568" r="1.61842" fill="#0035B7" fill-opacity="0.2"/>
<circle cx="562.488" cy="262.568" r="1.61842" fill="#0035B7" fill-opacity="0.2"/>
<circle cx="568.003" cy="262.568" r="1.61842" fill="#0035B7" fill-opacity="0.2"/>
<circle cx="573.519" cy="262.568" r="1.61842" fill="#0035B7" fill-opacity="0.2"/>
<path fill-rule="evenodd" clip-rule="evenodd" d="M304.388 122.537C305.848 121.742 306.839 120.195 306.839 118.416C306.839 115.826 304.74 113.727 302.15 113.727C299.56 113.727 297.461 115.826 297.461 118.416C297.461 121.005 299.56 123.104 302.15 123.104C302.565 123.104 302.967 123.051 303.349 122.95C304.562 123.736 305.984 124.921 307.485 126.521C309.935 129.135 312.562 132.824 314.794 137.604C319.254 147.161 322.132 161.08 318.833 179.479C315.843 196.149 305.646 208.173 294.148 219.276C288.858 215.367 283.146 211.791 276.967 208.578C280.109 212.042 282.269 219.119 283.937 228.817C283.486 229.233 283.037 229.651 282.588 230.068C274.605 237.496 266.928 245.064 261.529 253.945C257.451 247.66 254.02 240.613 251.729 232.433C252.71 231.574 253.329 230.312 253.329 228.906C253.329 226.316 251.23 224.217 248.64 224.217C246.05 224.217 243.951 226.316 243.951 228.906C243.951 231.495 246.05 233.595 248.64 233.595C249.471 233.595 250.252 233.378 250.929 232.999C253.293 241.303 256.825 248.455 261.004 254.825C256.219 263.003 253.383 272.305 253.991 283.622C255.094 304.136 265.175 317.619 276.891 330.271C279.06 332.614 281.283 334.926 283.517 337.249L283.517 337.249L283.517 337.249L283.517 337.249L283.517 337.25L283.517 337.25L283.517 337.25L283.517 337.25L283.518 337.251C288.302 342.227 293.13 347.249 297.567 352.711C300.145 367.727 303.466 382.574 307.892 396.515C307.4 397.136 306.877 397.748 306.326 398.353C295.954 389.572 284.498 384.712 281.03 386.235C281.03 386.235 286.242 396.799 291.318 410.976C279.945 419.661 267.365 429.913 263.05 447.837C261.051 456.143 263.443 464.335 268.582 472.094C273.719 479.849 281.621 487.209 290.724 493.89C291.391 494.38 292.064 494.865 292.744 495.348C300.746 515.919 308.213 531.741 329.523 531.741C349.711 531.741 372.584 531.043 389.047 530.417H358.45H348.219C336.928 530.417 327.775 521.264 327.775 509.973L327.775 256.095C319.037 242.178 308.34 229.922 294.902 219.837C306.401 208.719 316.714 196.529 319.742 179.642C323.074 161.064 320.175 146.95 315.631 137.214C313.36 132.348 310.678 128.576 308.159 125.889C306.839 124.481 305.554 123.36 304.388 122.537ZM825.975 530.221H825.164C835.111 528.84 842.769 520.301 842.769 509.973V445.366L848.172 443.404C848.157 442.374 848.136 441.336 848.107 440.288C846.864 441.185 845.6 442.095 844.312 443.023L844.269 443.053L844.261 443.059L842.769 444.134V331.662C850.701 318.661 860.215 309.896 875.327 295.974L875.328 295.972C880.884 290.853 887.197 285.037 894.467 278.057C900.505 333.431 871.646 372.504 871.646 372.504C871.646 372.504 894.192 360.169 917.177 344.961C899.052 401.58 881.969 415.816 849.013 439.634C849.047 440.79 849.074 441.935 849.091 443.07L908.61 421.451C904.898 429.846 901.542 437.523 898.469 444.551L898.467 444.554L898.467 444.554C869.078 511.764 865.626 519.659 825.975 530.221ZM856.544 283.618C852.82 297.979 848.038 312.184 842.769 326.611V187.073C842.769 187.026 842.769 186.98 842.769 186.933L842.768 186.834L842.767 186.75C846.402 179.41 850.434 172.011 854.937 164.547C868.479 208.832 866.101 246.046 856.909 282.197C873.206 270.127 886.407 245.925 894.065 222.201C897.92 210.261 900.361 198.471 901.089 188.456C901.732 179.598 901.028 172.199 898.839 167.304C894.865 168.404 887.763 168.372 888.195 160.048C888.643 151.429 888.382 147.875 888.195 147.176C893.605 149.648 904.202 155.683 903.306 160.048C902.562 163.675 901.014 165.139 900.06 166.041C899.846 166.243 899.662 166.417 899.524 166.581C901.941 171.704 902.67 179.44 902.01 188.523C901.277 198.627 898.818 210.49 894.945 222.485C887.207 246.454 873.786 271.069 857.083 283.217C856.975 283.295 856.869 283.374 856.763 283.453C856.69 283.508 856.617 283.563 856.544 283.618ZM283.217 230.745C283.518 230.465 283.819 230.186 284.12 229.907C286.078 241.772 287.354 257.357 288.795 274.949C289.072 278.327 289.354 281.779 289.649 285.294C288.002 283.643 286.316 281.989 284.61 280.316L284.603 280.309L284.6 280.306L284.598 280.305L284.598 280.304L284.598 280.304C276.832 272.69 268.671 264.687 262.092 254.801C267.421 245.89 275.117 238.283 283.217 230.745ZM254.915 283.573C254.328 272.654 257 263.643 261.574 255.684C268.19 265.523 276.328 273.499 284.009 281.026L284.01 281.027L284.012 281.029C285.972 282.95 287.902 284.842 289.77 286.728C291.473 306.899 293.596 329.036 297.256 350.879C293.064 345.842 288.573 341.172 284.146 336.569C281.923 334.256 279.715 331.961 277.569 329.643C265.897 317.038 255.999 303.757 254.915 283.573ZM307.027 398.955C307.443 398.497 307.845 398.035 308.229 397.568C308.612 398.755 309.004 399.936 309.403 401.11C308.622 400.369 307.829 399.65 307.027 398.955ZM263.949 448.053C268.156 430.578 280.345 420.536 291.644 411.892C294.478 419.904 297.234 429 298.977 437.964C300.847 447.581 304.078 455.377 307.124 461.109C299.485 455.478 286.494 449.809 269.333 447.76C279.846 461.833 285.779 477.258 291.067 491.006L291.071 491.017C291.428 491.944 291.781 492.863 292.133 493.773C291.845 493.565 291.557 493.355 291.271 493.145C282.212 486.496 274.405 479.211 269.353 471.583C264.304 463.96 262.028 456.031 263.949 448.053ZM875.301 229.064C875.743 237.683 886.924 238.67 886.924 238.67C886.924 238.67 889.78 233.051 890.331 227.508C890.772 223.074 879.611 218.162 873.975 216.26C874.233 216.937 874.858 220.445 875.301 229.064ZM861.399 536.778L860.092 535.471L860.098 535.464L858.823 534.19L858.81 534.177C856.956 532.308 856.96 529.291 858.823 527.428C860.691 525.561 863.718 525.561 865.585 527.428L866.86 528.702L868.135 527.428C870.002 525.561 873.029 525.561 874.896 527.428C876.764 529.295 876.764 532.322 874.896 534.19L873.622 535.464L873.628 535.471L873.625 535.474L868.173 540.925L866.866 542.232L866.86 542.226L866.854 542.232L865.547 540.925L861.399 536.778ZM866.86 544.841L866.854 544.847L865.547 543.54L858.785 536.778L857.477 535.47L857.484 535.464C854.927 532.872 854.938 528.699 857.516 526.121C860.094 523.542 864.268 523.531 866.86 526.088C869.452 523.531 873.625 523.542 876.204 526.121C878.782 528.699 878.793 532.873 876.236 535.464L876.242 535.471L874.935 536.778L868.173 543.54L866.866 544.847L866.86 544.841ZM784.705 225.887L784.702 225.89L781.917 223.104L781.919 223.101L781.394 222.576C780.625 221.807 780.625 220.56 781.394 219.79C782.163 219.021 783.411 219.021 784.18 219.79L784.705 220.315L785.23 219.79C785.999 219.021 787.247 219.021 788.016 219.79C788.785 220.56 788.785 221.807 788.016 222.576L787.491 223.101L787.494 223.104L784.708 225.89L784.705 225.887ZM780.609 223.104L780.616 223.097C779.612 221.961 779.653 220.224 780.74 219.137C781.829 218.048 783.568 218.008 784.705 219.016C785.842 218.008 787.581 218.048 788.67 219.137C789.757 220.224 789.798 221.961 788.794 223.097L788.801 223.104L784.708 227.197L784.705 227.194L784.702 227.197L780.609 223.104ZM590.405 313.168L590.402 313.171L587.617 310.385L587.619 310.383L587.094 309.858C586.325 309.088 586.325 307.841 587.094 307.072C587.863 306.302 589.111 306.302 589.88 307.072L590.405 307.597L590.93 307.072C591.699 306.302 592.947 306.302 593.716 307.072C594.485 307.841 594.485 309.088 593.716 309.858L593.191 310.383L593.194 310.385L590.408 313.171L590.405 313.168ZM586.309 310.385L586.316 310.379C585.312 309.242 585.353 307.505 586.441 306.418C587.529 305.33 589.268 305.289 590.405 306.297C591.542 305.289 593.281 305.33 594.37 306.418C595.457 307.505 595.498 309.242 594.494 310.379L594.501 310.385L590.408 314.478L590.405 314.476L590.402 314.478L586.309 310.385ZM566.227 356.691C573.034 356.691 578.551 362.209 578.551 369.015V474.725C578.551 481.531 573.034 487.048 566.227 487.048H528.307C521.501 487.048 515.984 481.531 515.984 474.725V369.015C515.984 362.209 521.501 356.691 528.307 356.691H566.227ZM586.316 500.41L586.309 500.417L590.402 504.51L590.405 504.507L590.408 504.51L594.501 500.416L594.494 500.41C595.498 499.273 595.457 497.536 594.37 496.449C593.281 495.361 591.542 495.321 590.405 496.328C589.268 495.321 587.529 495.361 586.441 496.449C585.353 497.536 585.312 499.273 586.316 500.41ZM784.702 503.978L784.705 503.975L784.708 503.978L787.494 501.192L787.491 501.189L788.016 500.664C788.785 499.895 788.785 498.647 788.016 497.878C787.247 497.109 786 497.109 785.23 497.878L784.705 498.403L784.18 497.878C783.411 497.109 782.163 497.109 781.394 497.878C780.625 498.648 780.625 499.895 781.394 500.664L781.919 501.189L781.917 501.192L784.702 503.978ZM780.616 501.185L780.609 501.192L784.702 505.285L784.705 505.282L784.708 505.285L788.801 501.192L788.794 501.185C789.798 500.049 789.757 498.312 788.67 497.225C787.581 496.136 785.842 496.096 784.705 497.104C783.568 496.096 781.829 496.136 780.741 497.225C779.653 498.312 779.612 500.049 780.616 501.185ZM665.366 324.258C663.653 324.258 662.264 325.647 662.264 327.36V331.026C662.264 332.74 663.653 334.129 665.366 334.129H695.116C696.83 334.129 698.219 332.74 698.219 331.026V327.36C698.219 325.647 696.83 324.258 695.116 324.258H665.366ZM665.366 340.688C663.653 340.688 662.264 342.076 662.264 343.79V347.456C662.264 349.169 663.653 350.558 665.366 350.558H695.116C696.83 350.558 698.219 349.169 698.219 347.456V343.79C698.219 342.076 696.83 340.688 695.116 340.688H665.366ZM662.264 360.222C662.264 358.508 663.653 357.119 665.366 357.119H695.116C696.83 357.119 698.219 358.508 698.219 360.222V363.888C698.219 365.601 696.83 366.99 695.116 366.99H665.366C663.653 366.99 662.264 365.601 662.264 363.888V360.222ZM665.366 373.551C663.653 373.551 662.264 374.94 662.264 376.653V380.319C662.264 382.033 663.653 383.422 665.366 383.422H695.116C696.83 383.422 698.219 382.033 698.219 380.319V376.653C698.219 374.94 696.83 373.551 695.116 373.551H665.366ZM556.752 269.193H540.643V270.786H556.752V269.193ZM584.593 218.414H512.802V266.902H512.906V222.299L530.115 257.679L534.795 244.463L538 252.034L540.164 248.593L544.294 254.513L548.562 245.702L550.087 248.952L555.445 232.348L560.727 244.99L574.306 231.385L584.593 245.65V218.414ZM374.224 227.377H410.022C411.413 227.377 412.54 226.292 412.54 224.953V224.591C412.54 223.253 411.413 222.168 410.022 222.168H374.224C372.833 222.168 371.705 223.253 371.705 224.591V224.953C371.705 226.292 372.833 227.377 374.224 227.377ZM376.31 292.318H376.552C378.259 292.318 379.642 293.702 379.642 295.408C379.642 297.115 378.259 298.499 376.552 298.499H376.31C374.603 298.499 373.22 297.115 373.22 295.408C373.22 293.702 374.603 292.318 376.31 292.318ZM387.013 292.318H386.77C385.064 292.318 383.68 293.702 383.68 295.408C383.68 297.115 385.064 298.499 386.77 298.499H387.013C388.72 298.499 390.103 297.115 390.103 295.408C390.103 293.702 388.72 292.318 387.013 292.318ZM397.232 292.318H397.475C399.181 292.318 400.565 293.702 400.565 295.408C400.565 297.115 399.181 298.499 397.475 298.499H397.232C395.526 298.499 394.142 297.115 394.142 295.408C394.142 293.702 395.526 292.318 397.232 292.318ZM407.935 292.318H407.693C405.986 292.318 404.603 293.702 404.603 295.408C404.603 297.115 405.986 298.499 407.693 298.499H407.935C409.642 298.499 411.025 297.115 411.025 295.408C411.025 293.702 409.642 292.318 407.935 292.318ZM424.72 331.424L424.717 331.427L421.931 328.641L421.934 328.638L421.409 328.113C420.64 327.344 420.64 326.097 421.409 325.328C422.178 324.558 423.425 324.558 424.195 325.328L424.72 325.853L425.245 325.328C426.014 324.558 427.261 324.558 428.031 325.328C428.8 326.097 428.8 327.344 428.031 328.113L427.506 328.638L427.508 328.641L424.722 331.427L424.72 331.424ZM420.624 328.641L420.631 328.634C419.627 327.498 419.668 325.761 420.755 324.674C421.844 323.586 423.583 323.545 424.72 324.553C425.856 323.545 427.596 323.586 428.684 324.674C429.771 325.761 429.813 327.498 428.809 328.634L428.816 328.641L424.722 332.734L424.72 332.732L424.717 332.734L420.624 328.641ZM424.717 503.202L424.72 503.2L424.722 503.202L427.508 500.416L427.505 500.414L428.031 499.889C428.799 499.119 428.8 497.872 428.031 497.103C427.261 496.334 426.014 496.334 425.245 497.103L424.72 497.628L424.195 497.103C423.425 496.334 422.178 496.334 421.409 497.103C420.639 497.872 420.639 499.119 421.409 499.889L421.934 500.414L421.931 500.416L424.717 503.202ZM420.63 500.41L420.624 500.417L424.717 504.51L424.72 504.507L424.722 504.51L428.815 500.416L428.809 500.41C429.813 499.273 429.771 497.536 428.684 496.449C427.596 495.361 425.856 495.321 424.72 496.328C423.583 495.321 421.843 495.361 420.755 496.449C419.668 497.536 419.626 499.273 420.63 500.41ZM775.028 334.273C775.028 335.018 774.648 335.675 774.07 336.059V318.082C774.648 318.466 775.028 319.123 775.028 319.869V334.273ZM775.028 356.355C775.028 357.1 774.648 357.757 774.07 358.141V340.164C774.648 340.548 775.028 341.205 775.028 341.951V356.355Z" fill="#d8357b"/>
<circle cx="527.401" cy="229.083" r="5.88929" fill="#0035B7"/>
<path fill-rule="evenodd" clip-rule="evenodd" d="M575.837 472.814L575.837 370.925C575.837 364.403 570.549 359.115 564.027 359.115L557.847 359.115V361.785C557.847 362.919 556.927 363.839 555.793 363.839H538.742C537.607 363.839 536.688 362.919 536.688 361.785V359.115L530.509 359.115C523.987 359.115 518.699 364.403 518.699 370.925L518.699 472.814C518.699 479.337 523.987 484.624 530.509 484.624H564.027C570.549 484.624 575.837 479.337 575.837 472.814ZM536.688 358.602L530.509 358.602C523.703 358.602 518.186 364.119 518.186 370.925L518.186 472.814C518.186 479.62 523.703 485.138 530.509 485.138H564.027C570.833 485.138 576.35 479.62 576.35 472.814L576.35 370.925C576.35 364.119 570.833 358.602 564.027 358.602H557.847H536.688ZM551.856 473.399C551.856 475.933 549.802 477.988 547.268 477.988C544.733 477.988 542.679 475.933 542.679 473.399C542.679 470.865 544.733 468.811 547.268 468.811C549.802 468.811 551.856 470.865 551.856 473.399Z" fill="black" fill-opacity="0.29"/>
<circle cx="844.114" cy="359.87" r="36.2495" stroke="#E9E9E9" stroke-width="0.924359"/>
<circle cx="844.113" cy="359.869" r="27.4436" fill="white" fill-opacity="0.6"/>
</svg>